<svg width="52" height="52" viewBox="0 0 52 52" fill="none" xmlns="http://www.w3.org/2000/svg">
<circle cx="26" cy="26" r="26" fill="#AA2F13"/>
<g filter="url(#filter0_d_78_2082)">
<circle cx="26" cy="26" r="16" fill="#F4F3EF"/>
</g>
<path d="M17.5599 22.86C17.8306 22.86 18.0499 22.944 18.2179 23.112C18.3859 23.28 18.4699 23.4993 18.4699 23.77C18.4699 24.0407 18.3859 24.26 18.2179 24.428C18.0499 24.596 17.8306 24.68 17.5599 24.68C17.2892 24.68 17.0699 24.596 16.9019 24.428C16.7339 24.26 16.6499 24.0407 16.6499 23.77C16.6499 23.4993 16.7339 23.28 16.9019 23.112C17.0699 22.944 17.2892 22.86 17.5599 22.86ZM17.5599 28.32C17.8306 28.32 18.0499 28.404 18.2179 28.572C18.3859 28.74 18.4699 28.9593 18.4699 29.23C18.4699 29.5007 18.3859 29.72 18.2179 29.888C18.0499 30.056 17.8306 30.14 17.5599 30.14C17.2892 30.14 17.0699 30.056 16.9019 29.888C16.7339 29.72 16.6499 29.5007 16.6499 29.23C16.6499 28.9593 16.7339 28.74 16.9019 28.572C17.0699 28.404 17.2892 28.32 17.5599 28.32ZM25.6105 25.758V26.92H20.9905V25.758H25.6105ZM31.7412 20.76C32.3665 20.76 32.9079 20.8767 33.3652 21.11C33.8319 21.334 34.1959 21.656 34.4572 22.076C34.7185 22.496 34.8492 22.9953 34.8492 23.574C34.8492 24.1527 34.7185 24.652 34.4572 25.072C34.1959 25.492 33.8319 25.8187 33.3652 26.052C32.9079 26.276 32.3665 26.388 31.7412 26.388H29.5992V30H28.4792V20.76H31.7412ZM31.5732 25.338C32.3012 25.338 32.8332 25.1887 33.1692 24.89C33.5052 24.582 33.6732 24.1433 33.6732 23.574C33.6732 22.9953 33.5052 22.5567 33.1692 22.258C32.8332 21.9593 32.3012 21.81 31.5732 21.81H29.5992V25.338H31.5732Z" fill="#363636"/>
<defs>
<filter id="filter0_d_78_2082" x="3" y="3" width="46" height="46" filterUnits="userSpaceOnUse" color-interpolation-filters="sRGB">
<feFlood flood-opacity="0" result="BackgroundImageFix"/>
<feColorMatrix in="SourceAlpha" type="matrix" values="0 0 0 0 0 0 0 0 0 0 0 0 0 0 0 0 0 0 127 0" result="hardAlpha"/>
<feMorphology radius="1" operator="dilate" in="SourceAlpha" result="effect1_dropShadow_78_2082"/>
<feOffset/>
<feGaussianBlur stdDeviation="3"/>
<feComposite in2="hardAlpha" operator="out"/>
<feColorMatrix type="matrix" values="0 0 0 0 0 0 0 0 0 0 0 0 0 0 0 0 0 0 0.36 0"/>
<feBlend mode="normal" in2="BackgroundImageFix" result="effect1_dropShadow_78_2082"/>
<feBlend mode="normal" in="SourceGraphic" in2="effect1_dropShadow_78_2082" result="shape"/>
</filter>
</defs>
</svg>
