<svg width="52" height="52" viewBox="0 0 52 52" fill="none" xmlns="http://www.w3.org/2000/svg">
<circle cx="26" cy="26" r="26" fill="#ABA0A0"/>
<g filter="url(#filter0_d_78_2070)">
<circle cx="26" cy="26" r="16" fill="white"/>
</g>
<path d="M18.2249 22.37C18.4762 22.37 18.6799 22.448 18.8359 22.604C18.9919 22.76 19.0699 22.9637 19.0699 23.215C19.0699 23.4663 18.9919 23.67 18.8359 23.826C18.6799 23.982 18.4762 24.06 18.2249 24.06C17.9735 24.06 17.7699 23.982 17.6139 23.826C17.4579 23.67 17.3799 23.4663 17.3799 23.215C17.3799 22.9637 17.4579 22.76 17.6139 22.604C17.7699 22.448 17.9735 22.37 18.2249 22.37ZM18.2249 27.44C18.4762 27.44 18.6799 27.518 18.8359 27.674C18.9919 27.83 19.0699 28.0337 19.0699 28.285C19.0699 28.5363 18.9919 28.74 18.8359 28.896C18.6799 29.052 18.4762 29.13 18.2249 29.13C17.9735 29.13 17.7699 29.052 17.6139 28.896C17.4579 28.74 17.3799 28.5363 17.3799 28.285C17.3799 28.0337 17.4579 27.83 17.6139 27.674C17.7699 27.518 17.9735 27.44 18.2249 27.44ZM25.7076 25.061V26.14H21.4176V25.061H25.7076ZM31.8365 20.29C32.6512 20.29 33.3532 20.472 33.9425 20.836C34.5405 21.1913 34.9998 21.6983 35.3205 22.357C35.6498 23.0157 35.8145 23.8 35.8145 24.71C35.8145 25.62 35.6498 26.4043 35.3205 27.063C34.9998 27.7217 34.5405 28.233 33.9425 28.597C33.3532 28.9523 32.6512 29.13 31.8365 29.13C31.0218 29.13 30.3155 28.9523 29.7175 28.597C29.1282 28.233 28.6688 27.7217 28.3395 27.063C28.0188 26.4043 27.8585 25.62 27.8585 24.71C27.8585 23.8 28.0188 23.0157 28.3395 22.357C28.6688 21.6983 29.1282 21.1913 29.7175 20.836C30.3155 20.472 31.0218 20.29 31.8365 20.29ZM31.8365 21.265C31.2472 21.265 30.7358 21.4037 30.3025 21.681C29.8692 21.9497 29.5355 22.344 29.3015 22.864C29.0675 23.3753 28.9505 23.9907 28.9505 24.71C28.9505 25.4293 29.0675 26.049 29.3015 26.569C29.5355 27.0803 29.8692 27.4747 30.3025 27.752C30.7358 28.0207 31.2472 28.155 31.8365 28.155C32.4345 28.155 32.9458 28.0207 33.3705 27.752C33.8038 27.4747 34.1375 27.0803 34.3715 26.569C34.6055 26.049 34.7225 25.4293 34.7225 24.71C34.7225 23.9907 34.6055 23.3753 34.3715 22.864C34.1375 22.344 33.8038 21.9497 33.3705 21.681C32.9458 21.4037 32.4345 21.265 31.8365 21.265Z" fill="#363636" fill-opacity="0.8"/>
<defs>
<filter id="filter0_d_78_2070" x="3" y="3" width="46" height="46" filterUnits="userSpaceOnUse" color-interpolation-filters="sRGB">
<feFlood flood-opacity="0" result="BackgroundImageFix"/>
<feColorMatrix in="SourceAlpha" type="matrix" values="0 0 0 0 0 0 0 0 0 0 0 0 0 0 0 0 0 0 127 0" result="hardAlpha"/>
<feMorphology radius="1" operator="dilate" in="SourceAlpha" result="effect1_dropShadow_78_2070"/>
<feOffset/>
<feGaussianBlur stdDeviation="3"/>
<feComposite in2="hardAlpha" operator="out"/>
<feColorMatrix type="matrix" values="0 0 0 0 0 0 0 0 0 0 0 0 0 0 0 0 0 0 0.36 0"/>
<feBlend mode="normal" in2="BackgroundImageFix" result="effect1_dropShadow_78_2070"/>
<feBlend mode="normal" in="SourceGraphic" in2="effect1_dropShadow_78_2070" result="shape"/>
</filter>
</defs>
</svg>
