<svg width="52" height="52" viewBox="0 0 52 52" fill="none" xmlns="http://www.w3.org/2000/svg">
<circle cx="26" cy="26" r="26" fill="#E14E4E"/>
<g filter="url(#filter0_d_78_2093)">
<circle cx="26" cy="26" r="16" fill="#F4F3EF"/>
</g>
<path d="M18.1751 22.86C18.4458 22.86 18.6651 22.944 18.8331 23.112C19.0011 23.28 19.0851 23.4993 19.0851 23.77C19.0851 24.0407 19.0011 24.26 18.8331 24.428C18.6651 24.596 18.4458 24.68 18.1751 24.68C17.9045 24.68 17.6851 24.596 17.5171 24.428C17.3491 24.26 17.2651 24.0407 17.2651 23.77C17.2651 23.4993 17.3491 23.28 17.5171 23.112C17.6851 22.944 17.9045 22.86 18.1751 22.86ZM18.1751 28.32C18.4458 28.32 18.6651 28.404 18.8331 28.572C19.0011 28.74 19.0851 28.9593 19.0851 29.23C19.0851 29.5007 19.0011 29.72 18.8331 29.888C18.6651 30.056 18.4458 30.14 18.1751 30.14C17.9045 30.14 17.6851 30.056 17.5171 29.888C17.3491 29.72 17.2651 29.5007 17.2651 29.23C17.2651 28.9593 17.3491 28.74 17.5171 28.572C17.6851 28.404 17.9045 28.32 18.1751 28.32ZM26.2257 25.758V26.92H21.6057V25.758H26.2257ZM31.0992 22.916L32.2052 24.092L33.1852 25.464L32.4572 25.996L31.4492 24.638L30.6792 23.224L30.8892 23.07L31.0992 22.916ZM30.6792 22.916L30.8892 23.07L31.0992 23.224L30.3292 24.638L29.3212 25.996L28.5932 25.464L29.5732 24.092L30.6792 22.916ZM27.8932 21.628L29.5172 22.132L30.9732 22.818L30.8892 23.07L30.8052 23.322L29.2232 23.014L27.6272 22.482L27.8932 21.628ZM31.3512 19.78V21.474L31.1552 23.07H30.8892H30.6232L30.4272 21.474V19.78H31.3512ZM33.8852 21.628L34.1512 22.482L32.5552 23.014L30.9732 23.322L30.8892 23.07L30.8052 22.818L32.2612 22.132L33.8852 21.628Z" fill="#363636"/>
<defs>
<filter id="filter0_d_78_2093" x="3" y="3" width="46" height="46" filterUnits="userSpaceOnUse" color-interpolation-filters="sRGB">
<feFlood flood-opacity="0" result="BackgroundImageFix"/>
<feColorMatrix in="SourceAlpha" type="matrix" values="0 0 0 0 0 0 0 0 0 0 0 0 0 0 0 0 0 0 127 0" result="hardAlpha"/>
<feMorphology radius="1" operator="dilate" in="SourceAlpha" result="effect1_dropShadow_78_2093"/>
<feOffset/>
<feGaussianBlur stdDeviation="3"/>
<feComposite in2="hardAlpha" operator="out"/>
<feColorMatrix type="matrix" values="0 0 0 0 0 0 0 0 0 0 0 0 0 0 0 0 0 0 0.36 0"/>
<feBlend mode="normal" in2="BackgroundImageFix" result="effect1_dropShadow_78_2093"/>
<feBlend mode="normal" in="SourceGraphic" in2="effect1_dropShadow_78_2093" result="shape"/>
</filter>
</defs>
</svg>
