<svg width="52" height="52" viewBox="0 0 52 52" fill="none" xmlns="http://www.w3.org/2000/svg">
<circle cx="26" cy="26" r="26" fill="#79E3F1"/>
<g filter="url(#filter0_d_78_2109)">
<circle cx="26" cy="26" r="16" fill="#F4F3EF"/>
</g>
<path d="M18.1351 22.86C18.4058 22.86 18.6251 22.944 18.7931 23.112C18.9611 23.28 19.0451 23.4993 19.0451 23.77C19.0451 24.0407 18.9611 24.26 18.7931 24.428C18.6251 24.596 18.4058 24.68 18.1351 24.68C17.8644 24.68 17.6451 24.596 17.4771 24.428C17.3091 24.26 17.2251 24.0407 17.2251 23.77C17.2251 23.4993 17.3091 23.28 17.4771 23.112C17.6451 22.944 17.8644 22.86 18.1351 22.86ZM18.1351 28.32C18.4058 28.32 18.6251 28.404 18.7931 28.572C18.9611 28.74 19.0451 28.9593 19.0451 29.23C19.0451 29.5007 18.9611 29.72 18.7931 29.888C18.6251 30.056 18.4058 30.14 18.1351 30.14C17.8644 30.14 17.6451 30.056 17.4771 29.888C17.3091 29.72 17.2251 29.5007 17.2251 29.23C17.2251 28.9593 17.3091 28.74 17.4771 28.572C17.6451 28.404 17.8644 28.32 18.1351 28.32ZM26.1857 25.758V26.92H21.5657V25.758H26.1857ZM31.7424 22.86C32.405 22.86 32.9884 23.0047 33.4924 23.294C34.0057 23.5833 34.407 24.0033 34.6964 24.554C34.9857 25.0953 35.1304 25.744 35.1304 26.5C35.1304 27.256 34.9857 27.9093 34.6964 28.46C34.407 29.0013 34.0057 29.4167 33.4924 29.706C32.9884 29.9953 32.405 30.14 31.7424 30.14C31.089 30.14 30.5057 29.9953 29.9924 29.706C29.479 29.4167 29.0777 29.0013 28.7884 28.46C28.499 27.9093 28.3544 27.256 28.3544 26.5C28.3544 25.744 28.499 25.0953 28.7884 24.554C29.0777 24.0033 29.479 23.5833 29.9924 23.294C30.5057 23.0047 31.089 22.86 31.7424 22.86ZM31.7424 23.826C31.2664 23.826 30.8604 23.9333 30.5244 24.148C30.1884 24.3627 29.927 24.6707 29.7404 25.072C29.563 25.464 29.4744 25.94 29.4744 26.5C29.4744 27.0507 29.563 27.5267 29.7404 27.928C29.927 28.3293 30.1884 28.6373 30.5244 28.852C30.8604 29.0667 31.2664 29.174 31.7424 29.174C32.2184 29.174 32.6244 29.0667 32.9604 28.852C33.2964 28.6373 33.553 28.3293 33.7304 27.928C33.917 27.5267 34.0104 27.0507 34.0104 26.5C34.0104 25.94 33.917 25.464 33.7304 25.072C33.553 24.6707 33.2964 24.3627 32.9604 24.148C32.6244 23.9333 32.2184 23.826 31.7424 23.826Z" fill="#363636"/>
<defs>
<filter id="filter0_d_78_2109" x="3" y="3" width="46" height="46" filterUnits="userSpaceOnUse" color-interpolation-filters="sRGB">
<feFlood flood-opacity="0" result="BackgroundImageFix"/>
<feColorMatrix in="SourceAlpha" type="matrix" values="0 0 0 0 0 0 0 0 0 0 0 0 0 0 0 0 0 0 127 0" result="hardAlpha"/>
<feMorphology radius="1" operator="dilate" in="SourceAlpha" result="effect1_dropShadow_78_2109"/>
<feOffset/>
<feGaussianBlur stdDeviation="3"/>
<feComposite in2="hardAlpha" operator="out"/>
<feColorMatrix type="matrix" values="0 0 0 0 0 0 0 0 0 0 0 0 0 0 0 0 0 0 0.36 0"/>
<feBlend mode="normal" in2="BackgroundImageFix" result="effect1_dropShadow_78_2109"/>
<feBlend mode="normal" in="SourceGraphic" in2="effect1_dropShadow_78_2109" result="shape"/>
</filter>
</defs>
</svg>
