<svg width="43" height="42" viewBox="0 0 43 42" fill="none" xmlns="http://www.w3.org/2000/svg">
<path d="M31.0855 5.92127C31.0855 4.60677 30.5734 3.37105 29.6441 2.44138C28.7148 1.51178 27.4787 1 26.1642 1C24.8491 1 23.6133 1.51208 22.6837 2.44138L21.748 3.37641L20.8129 2.44138C19.8834 1.51178 18.6476 1 17.3331 1C16.0185 1 14.7828 1.51208 13.8532 2.44138C12.9229 3.37097 12.4111 4.60677 12.4111 5.92127C12.4111 7.23578 12.9232 8.4715 13.8525 9.40117L21.6683 17.217L21.7483 17.137L21.8282 17.217L29.6433 9.40117C30.5729 8.47158 31.0854 7.23578 31.0854 5.92127H31.0855ZM14.6452 8.60795C13.9279 7.89028 13.5326 6.93591 13.5326 5.92127C13.5326 4.90632 13.9273 3.95228 14.6456 3.23427C15.3632 2.5166 16.3176 2.12128 17.3322 2.12128C18.3469 2.12128 19.3012 2.5166 20.0189 3.23427L21.7474 4.96277L23.4762 3.23427C24.1939 2.5166 25.1483 2.12128 26.1636 2.12128C27.1782 2.12128 28.1325 2.5166 28.8502 3.23427C29.5679 3.95194 29.9632 4.90632 29.9632 5.92095C29.9632 6.93558 29.5679 7.88995 28.8502 8.60763L21.8277 15.6302L21.7477 15.5503L21.6677 15.6302L14.6452 8.60795Z" fill="#F4F3EF" stroke="#F4F3EF" stroke-width="0.8"/>
<path d="M32.8756 30.7156C35.8142 30.7156 38.2048 28.3249 38.2048 25.3864C38.2048 22.4477 35.8141 20.0571 32.8756 20.0571C29.9371 20.0571 27.5464 22.4478 27.5464 25.3864C27.5461 28.325 29.9368 30.7156 32.8756 30.7156ZM32.8756 21.1793C35.1958 21.1793 37.083 23.0664 37.083 25.3867C37.083 27.7069 35.1959 29.5941 32.8756 29.5941C30.5553 29.5941 28.6682 27.707 28.6682 25.3867C28.6682 23.0665 30.5553 21.1793 32.8756 21.1793Z" fill="#F4F3EF" stroke="#F4F3EF" stroke-width="0.8"/>
<path d="M10.0617 20.0576C7.12304 20.0576 4.73242 22.4483 4.73242 25.3869C4.73242 28.3255 7.12312 30.7161 10.0617 30.7161C13.0002 30.7161 15.3909 28.3254 15.3909 25.3869C15.3912 22.4482 13.0005 20.0576 10.0617 20.0576ZM10.0617 29.5939C7.74147 29.5939 5.85427 27.7068 5.85427 25.3865C5.85427 23.0663 7.74139 21.1791 10.0617 21.1791C12.382 21.1791 14.2691 23.0663 14.2691 25.3865C14.2691 27.7068 12.382 29.5939 10.0617 29.5939Z" fill="#F4F3EF" stroke="#F4F3EF" stroke-width="0.8"/>
<path d="M2.12864 40.9999C2.12769 40.9561 2.12229 40.9139 2.12229 40.8701V39.6337C2.12229 36.1082 4.99042 33.24 8.51604 33.24H11.6073C12.048 33.24 12.4782 33.285 12.8942 33.37C11.4864 34.9557 10.6231 37.0349 10.6231 39.3171V40.813C10.6231 40.8762 10.6314 40.9371 10.6326 40.9999H11.7548C11.7535 40.9371 11.7453 40.8762 11.7453 40.813V39.3171C11.7453 34.9866 15.2686 31.4633 19.5991 31.4633H23.3388C27.6693 31.4633 31.1926 34.9866 31.1926 39.3171V40.813C31.1926 40.8762 31.1844 40.9371 31.1831 40.9999H32.3053C32.3065 40.9371 32.3148 40.8762 32.3148 40.813V39.3171C32.3148 37.0352 31.4515 34.9555 30.0437 33.37C30.4593 33.2844 30.8896 33.24 31.3306 33.24H34.4218C37.9474 33.24 40.8156 36.1081 40.8156 39.6337V40.8701C40.8156 40.9139 40.8102 40.9561 40.8092 40.9999H41.9314C41.9301 40.9565 41.9362 40.9139 41.9362 40.8705V39.634C41.9362 35.4898 38.5645 32.1181 34.4203 32.1181H31.329C30.5568 32.1181 29.8111 32.2358 29.1094 32.4535C27.5475 31.1381 25.5346 30.3417 23.3378 30.3417H19.5981C17.4012 30.3417 15.3885 31.138 13.8265 32.4535C13.1247 32.2361 12.3791 32.1181 11.6068 32.1181H8.51559C4.37162 32.1178 1 35.4895 1 39.6337V40.8701C1 40.9139 1.00603 40.9561 1.00635 40.9999L2.12851 40.9996L2.12864 40.9999Z" fill="#F4F3EF" stroke="#F4F3EF" stroke-width="0.8"/>
<path d="M16.1394 24.2649C16.1394 27.2035 18.5301 29.5941 21.4687 29.5941C24.4072 29.5941 26.7979 27.2034 26.7979 24.2649C26.7979 21.3263 24.4069 18.9357 21.4687 18.9357C18.5304 18.9357 16.1394 21.3264 16.1394 24.2649ZM17.2612 24.2649C17.2612 21.9447 19.1484 20.0575 21.4687 20.0575C23.7889 20.0575 25.6761 21.9446 25.6761 24.2649C25.6761 26.5851 23.7889 28.4723 21.4687 28.4723C19.1484 28.4723 17.2612 26.5852 17.2612 24.2649Z" fill="#F4F3EF" stroke="#F4F3EF" stroke-width="0.8"/>
</svg>
