<svg width="51" height="50" viewBox="0 0 51 50" fill="none" xmlns="http://www.w3.org/2000/svg">
<path d="M34.7257 3.90539C34.3288 3.99048 33.9748 4.21325 33.7263 4.53425C33.4779 4.85526 33.351 5.25381 33.3681 5.65937V40.0513C33.3278 40.2974 33.3415 40.5492 33.4082 40.7895C33.4749 41.0297 33.5931 41.2526 33.7545 41.4426C33.916 41.6327 34.1168 41.7853 34.3431 41.89C34.5694 41.9947 34.8157 42.0489 35.0651 42.0489C35.3144 42.0489 35.5608 41.9947 35.7871 41.89C36.0134 41.7853 36.2142 41.6327 36.3756 41.4426C36.5371 41.2526 36.6552 41.0297 36.722 40.7895C36.7887 40.5492 36.8024 40.2974 36.7621 40.0513V5.65937C36.7678 5.41763 36.7225 5.17739 36.6291 4.95434C36.5357 4.73129 36.3963 4.53045 36.22 4.36492C36.0437 4.1994 35.8345 4.07292 35.606 3.99373C35.3776 3.91455 35.1349 3.88445 34.894 3.90539C34.838 3.90264 34.7818 3.90264 34.7257 3.90539ZM13.0045 5.71549C12.6076 5.80058 12.2536 6.02335 12.0051 6.34435C11.7567 6.66536 11.6298 7.06391 11.6469 7.46948V38.2412C11.6066 38.4873 11.6203 38.7391 11.687 38.9794C11.7537 39.2196 11.8719 39.4425 12.0333 39.6325C12.1947 39.8226 12.3956 39.9752 12.6219 40.0799C12.8482 40.1846 13.0945 40.2388 13.3439 40.2388C13.5932 40.2388 13.8396 40.1846 14.0659 40.0799C14.2922 39.9752 14.493 39.8226 14.6544 39.6325C14.8159 39.4425 14.934 39.2196 15.0008 38.9794C15.0675 38.7391 15.0812 38.4873 15.0408 38.2412V7.46948C15.0466 7.22773 15.0013 6.98749 14.9079 6.76444C14.8145 6.54139 14.6751 6.34055 14.4988 6.17502C14.3225 6.0095 14.1133 5.88302 13.8848 5.80383C13.6563 5.72465 13.4137 5.69455 13.1728 5.71549C13.1167 5.71274 13.0606 5.71274 13.0045 5.71549ZM29.2954 11.1458C28.8985 11.2309 28.5445 11.4536 28.296 11.7747C28.0476 12.0957 27.9207 12.4942 27.9378 12.8998V32.8109C27.8966 33.0573 27.9096 33.3097 27.9759 33.5505C28.0422 33.7914 28.1601 34.0149 28.3215 34.2056C28.483 34.3962 28.684 34.5494 28.9106 34.6545C29.1373 34.7596 29.3841 34.814 29.6339 34.814C29.8837 34.814 30.1305 34.7596 30.3571 34.6545C30.5838 34.5494 30.7848 34.3962 30.9462 34.2056C31.1077 34.0149 31.2256 33.7914 31.2919 33.5505C31.3581 33.3097 31.3711 33.0573 31.3299 32.8109V12.8998C31.3356 12.6584 31.2904 12.4185 31.1972 12.1957C31.1041 11.9729 30.965 11.7722 30.7891 11.6068C30.6132 11.4413 30.4045 11.3147 30.1764 11.2353C29.9484 11.1559 29.7062 11.1254 29.4655 11.1458C29.4083 11.1429 29.3509 11.1429 29.2936 11.1458H29.2954ZM7.57418 12.9559C7.17727 13.041 6.82327 13.2638 6.57481 13.5848C6.32635 13.9058 6.19946 14.3043 6.2166 14.7099V31.0008C6.17542 31.2472 6.18841 31.4996 6.25468 31.7404C6.32094 31.9813 6.43889 32.2048 6.60032 32.3955C6.76174 32.5861 6.96277 32.7393 7.18941 32.8444C7.41605 32.9495 7.66286 33.0039 7.91267 33.0039C8.16248 33.0039 8.40929 32.9495 8.63593 32.8444C8.86257 32.7393 9.06359 32.5861 9.22502 32.3955C9.38644 32.2048 9.50439 31.9813 9.57066 31.7404C9.63692 31.4996 9.64992 31.2472 9.60873 31.0008V14.7099C9.61442 14.4685 9.56921 14.2286 9.47602 14.0058C9.38284 13.783 9.24378 13.5823 9.0679 13.4169C8.89202 13.2514 8.68326 13.1248 8.45521 13.0454C8.22716 12.966 7.98495 12.9355 7.74433 12.9559C7.68704 12.953 7.62965 12.953 7.57237 12.9559H7.57418ZM18.4348 14.766C18.0379 14.8511 17.6839 15.0739 17.4354 15.3949C17.187 15.7159 17.0601 16.1144 17.0772 16.52V29.1907C17.036 29.4371 17.049 29.6895 17.1153 29.9303C17.1815 30.1712 17.2995 30.3947 17.4609 30.5854C17.6224 30.776 17.8234 30.9292 18.05 31.0343C18.2767 31.1394 18.5235 31.1938 18.7733 31.1938C19.0231 31.1938 19.2699 31.1394 19.4965 31.0343C19.7232 30.9292 19.9242 30.776 20.0856 30.5854C20.247 30.3947 20.365 30.1712 20.4313 29.9303C20.4975 29.6895 20.5105 29.4371 20.4693 29.1907V16.52C20.475 16.2786 20.4298 16.0387 20.3366 15.8159C20.2434 15.5931 20.1044 15.3924 19.9285 15.227C19.7526 15.0615 19.5439 14.9349 19.3158 14.8555C19.0878 14.7761 18.8456 14.7456 18.6049 14.766C18.5477 14.7631 18.4903 14.7631 18.433 14.766H18.4348ZM40.156 14.766C39.7591 14.8511 39.4051 15.0739 39.1566 15.3949C38.9082 15.7159 38.7813 16.1144 38.7984 16.52V29.1907C38.7581 29.4368 38.7718 29.6886 38.8385 29.9289C38.9052 30.1691 39.0234 30.392 39.1848 30.582C39.3463 30.7721 39.5471 30.9247 39.7734 31.0294C39.9997 31.1341 40.2461 31.1883 40.4954 31.1883C40.7447 31.1883 40.9911 31.1341 41.2174 31.0294C41.4437 30.9247 41.6445 30.7721 41.806 30.582C41.9674 30.392 42.0856 30.1691 42.1523 29.9289C42.219 29.6886 42.2327 29.4368 42.1924 29.1907V16.52C42.1981 16.2782 42.1528 16.038 42.0594 15.8149C41.966 15.5919 41.8266 15.3911 41.6503 15.2255C41.474 15.06 41.2648 14.9335 41.0363 14.8543C40.8079 14.7752 40.5652 14.7451 40.3243 14.766C40.2683 14.7632 40.2121 14.7632 40.156 14.766ZM2.14387 18.3862C1.74697 18.4713 1.39296 18.6941 1.1445 19.0151C0.896047 19.3361 0.76916 19.7346 0.786298 20.1402V25.5705C0.745983 25.8165 0.759661 26.0684 0.826384 26.3087C0.893108 26.5489 1.01128 26.7718 1.17271 26.9618C1.33414 27.1519 1.53497 27.3045 1.76127 27.4092C1.98757 27.5139 2.23393 27.5681 2.48327 27.5681C2.73261 27.5681 2.97897 27.5139 3.20527 27.4092C3.43157 27.3045 3.6324 27.1519 3.79383 26.9618C3.95526 26.7718 4.07343 26.5489 4.14015 26.3087C4.20688 26.0684 4.22055 25.8165 4.18024 25.5705V20.1402C4.18598 19.8984 4.14068 19.6582 4.04728 19.4351C3.95388 19.2121 3.81448 19.0113 3.6382 18.8457C3.46191 18.6802 3.2527 18.5537 3.02422 18.4745C2.79573 18.3954 2.55312 18.3653 2.31221 18.3862C2.25553 18.3834 2.19875 18.3834 2.14206 18.3862H2.14387ZM23.8651 18.3862C23.4682 18.4713 23.1142 18.6941 22.8657 19.0151C22.6173 19.3361 22.4904 19.7346 22.5075 20.1402V25.5705C22.4663 25.8169 22.4793 26.0693 22.5456 26.3101C22.6119 26.551 22.7298 26.7745 22.8912 26.9652C23.0527 27.1558 23.2537 27.309 23.4803 27.4141C23.707 27.5192 23.9538 27.5736 24.2036 27.5736C24.4534 27.5736 24.7002 27.5192 24.9268 27.4141C25.1535 27.309 25.3545 27.1558 25.5159 26.9652C25.6774 26.7745 25.7953 26.551 25.8616 26.3101C25.9278 26.0693 25.9408 25.8169 25.8996 25.5705V20.1402C25.9053 19.8988 25.8601 19.6589 25.7669 19.4361C25.6738 19.2133 25.5347 19.0126 25.3588 18.8472C25.1829 18.6817 24.9742 18.5552 24.7461 18.4757C24.5181 18.3963 24.2759 18.3658 24.0352 18.3862C23.978 18.3833 23.9206 18.3833 23.8633 18.3862H23.8651ZM45.5863 18.3862C45.1894 18.4713 44.8354 18.6941 44.5869 19.0151C44.3385 19.3361 44.2116 19.7346 44.2287 20.1402V25.5705C44.1884 25.8165 44.2021 26.0684 44.2688 26.3087C44.3355 26.5489 44.4537 26.7718 44.6151 26.9618C44.7766 27.1519 44.9774 27.3045 45.2037 27.4092C45.43 27.5139 45.6764 27.5681 45.9257 27.5681C46.175 27.5681 46.4214 27.5139 46.6477 27.4092C46.874 27.3045 47.0748 27.1519 47.2363 26.9618C47.3977 26.7718 47.5159 26.5489 47.5826 26.3087C47.6493 26.0684 47.663 25.8165 47.6227 25.5705V20.1402C47.6284 19.8984 47.5831 19.6582 47.4897 19.4351C47.3963 19.2121 47.2569 19.0113 47.0806 18.8457C46.9043 18.6802 46.6951 18.5537 46.4666 18.4745C46.2382 18.3954 45.9955 18.3653 45.7546 18.3862C45.6986 18.3834 45.6424 18.3834 45.5863 18.3862Z" fill="#F4F3EF"/>
</svg>
