<svg width="32" height="31" viewBox="0 0 32 31" fill="none" xmlns="http://www.w3.org/2000/svg">
<path d="M29.2382 8.48893V6.85496C29.2382 6.10127 28.9389 5.37861 28.406 4.8459C27.873 4.31298 27.1503 4.01344 26.3969 4.01344H26.1836V2.84152C26.1836 2.08784 25.8843 1.36517 25.3514 0.832206C24.8185 0.299286 24.0957 0 23.3423 0H8.42464C7.67121 0 6.94854 0.299292 6.41558 0.832206C5.88266 1.36513 5.58337 2.08784 5.58337 2.84152V4.01344H5.37005C4.61662 4.01344 3.89395 4.31298 3.36099 4.8459C2.82807 5.37857 2.52878 6.10127 2.52878 6.85496V8.48893C1.88933 8.61949 1.31431 8.9661 0.900272 9.47056C0.48623 9.97502 0.258596 10.6068 0.255615 11.2594V27.207C0.255615 27.9607 0.554907 28.6834 1.08782 29.2164C1.62074 29.7493 2.34345 30.0486 3.09689 30.0486H28.67C29.4235 30.0486 30.1461 29.7493 30.6791 29.2164C31.212 28.6834 31.5113 27.9607 31.5113 27.207V11.2594C31.5083 10.6068 31.2806 9.97499 30.8666 9.47056C30.4526 8.96614 29.8776 8.61952 29.2381 8.48893H29.2382ZM7.71411 2.84159C7.71411 2.44914 8.03222 2.13103 8.42441 2.13103H23.3421C23.5304 2.13103 23.711 2.20585 23.8443 2.33914C23.9776 2.47244 24.0524 2.65305 24.0524 2.84159V4.01351H7.71399L7.71411 2.84159ZM5.36984 6.14466H26.3966C26.5849 6.14466 26.7656 6.21948 26.8988 6.35277C27.0321 6.48582 27.107 6.66668 27.107 6.85497V8.41784H4.65942V6.85497C4.65942 6.46277 4.97754 6.14467 5.36972 6.14467L5.36984 6.14466ZM29.3802 27.207C29.3802 27.3955 29.3054 27.5761 29.1721 27.7094C29.0388 27.8427 28.8582 27.9175 28.6699 27.9175H3.09672C2.70452 27.9175 2.38642 27.5994 2.38642 27.207V11.2593C2.38642 10.8668 2.70454 10.549 3.09672 10.549H28.6699C28.8582 10.549 29.0388 10.6238 29.1721 10.7569C29.3054 10.8902 29.3802 11.0708 29.3802 11.2593V27.207Z" fill="#FF7C4B"/>
<path d="M18.8311 12.6798H12.9351C11.8819 12.6798 10.9087 13.2417 10.3819 14.1539C9.85544 15.0659 9.85544 16.1898 10.3819 17.102C10.9087 18.014 11.8818 18.5758 12.9351 18.5758H18.8311C19.8843 18.5758 20.8575 18.0139 21.3843 17.102C21.9108 16.1897 21.9108 15.0659 21.3843 14.1539C20.8575 13.2417 19.8844 12.6798 18.8311 12.6798ZM18.8311 16.4447H12.9351C12.4839 16.4447 12.1182 16.079 12.1182 15.6278C12.1182 15.1767 12.4839 14.811 12.9351 14.811H18.8311C19.2823 14.811 19.648 15.1767 19.648 15.6278C19.648 16.079 19.2823 16.4447 18.8311 16.4447Z" fill="#FF7C4B"/>
</svg>
