<svg width="15" height="15" viewBox="0 0 15 15" fill="none" xmlns="http://www.w3.org/2000/svg">
<path fill-rule="evenodd" clip-rule="evenodd" d="M8.06587 5.58261C8.06587 5.90951 8.25595 5.9877 8.49166 5.756L11.1049 3.18716C11.3243 2.97165 11.6785 2.97151 11.8969 3.1862C12.1241 3.40953 12.1242 3.75867 11.9052 3.97391L9.29192 6.54265C9.05676 6.7738 9.13506 6.96119 9.46832 6.96119H13.1642C13.4745 6.96119 13.7248 7.20729 13.7248 7.51086C13.7248 7.82679 13.4738 8.0737 13.1642 8.0737H9.46832C9.13575 8.0737 9.05621 8.26054 9.29192 8.49225L11.9052 11.061C12.1245 11.2766 12.1246 11.6248 11.9062 11.8395C11.679 12.0628 11.3238 12.063 11.1049 11.8477L8.49165 9.27888C8.2565 9.04773 8.06586 9.12469 8.06586 9.45227V13.0853C8.06586 13.3902 7.8155 13.6363 7.50667 13.6363C7.18527 13.6363 6.93408 13.3895 6.93408 13.0853V9.45227C6.93408 9.12537 6.74401 9.04718 6.5083 9.27888L3.89508 11.8477C3.67569 12.0632 3.32149 12.0634 3.10309 11.8487C2.87589 11.6253 2.87575 11.2762 3.09472 11.061L5.70804 8.49224C5.94319 8.26109 5.8649 8.07369 5.53164 8.07369H1.83573C1.5255 8.07369 1.27515 7.82759 1.27515 7.52402C1.27515 7.20809 1.52621 6.96118 1.83573 6.96118H5.53164C5.86421 6.96118 5.94375 6.77434 5.70804 6.54264L3.09472 3.9739C2.87547 3.75825 2.87533 3.41007 3.09374 3.19539C3.32094 2.97206 3.67612 2.97192 3.89509 3.18716L6.50831 5.756C6.74346 5.98715 6.93409 5.9102 6.93409 5.58261V1.9496C6.93409 1.64465 7.18446 1.39856 7.49329 1.39856C7.81468 1.39856 8.06587 1.64535 8.06587 1.9496V5.58261Z" fill="#FF7C4B"/>
</svg>
