<svg width="54" height="38" viewBox="0 0 54 38" fill="none" xmlns="http://www.w3.org/2000/svg">
<path d="M52.0873 4.1294C51.7192 3.90895 51.2965 3.79498 50.8668 3.80027C50.3904 3.7985 49.9234 3.93015 49.5189 4.1802L40.6934 9.67716V5.06675C40.6934 3.72285 40.1576 2.43425 39.2036 1.48391C38.2496 0.53358 36.9558 0 35.6066 0H5.08676C3.73755 0 2.44386 0.533671 1.48977 1.48391C0.535687 2.43416 0 3.72285 0 5.06675V32.9333C0 34.2772 0.535778 35.5658 1.48977 36.5161C2.44377 37.4664 3.73755 38 5.08676 38H35.6066C36.9558 38 38.2495 37.4663 39.2036 36.5161C40.1577 35.5658 40.6934 34.2772 40.6934 32.9333V28.3228L49.5186 33.8203L49.519 33.8198C49.9235 34.0699 50.3905 34.2015 50.8669 34.1997C51.2966 34.205 51.7193 34.0911 52.0874 33.8706C52.4853 33.6537 52.8175 33.3352 53.0499 32.9477C53.2823 32.5603 53.4069 32.1181 53.41 31.6666V6.33342C53.4069 5.88192 53.2823 5.43971 53.0499 5.05228C52.8175 4.66486 52.4853 4.34632 52.0874 4.12941L52.0873 4.1294ZM38.1501 32.9335C38.1501 33.6054 37.8823 34.25 37.405 34.7249C36.9283 35.1998 36.2812 35.4671 35.6065 35.4671H5.0867C4.41211 35.4671 3.76497 35.1998 3.28821 34.7249C2.81098 34.25 2.54309 33.6054 2.54309 32.9335V5.06695C2.54309 4.39501 2.81098 3.75042 3.28821 3.27554C3.76499 2.80063 4.41208 2.53335 5.0867 2.53335H35.6065C36.2811 2.53335 36.9283 2.80063 37.405 3.27554C37.8823 3.75044 38.1501 4.39499 38.1501 5.06695V32.9335ZM50.8668 31.6669L40.6932 25.3336V12.667L50.8668 6.33373V31.6669Z" fill="#F4F3EF"/>
</svg>
