<svg width="32" height="32" viewBox="0 0 32 32" fill="none" xmlns="http://www.w3.org/2000/svg">
<path d="M25.7377 26.1872C25.7377 27.8659 24.3759 29.2279 22.7288 29.2279H6.00564C4.32699 29.2279 2.96495 27.8661 2.96495 26.1872V9.46405C2.96495 7.7854 4.32677 6.42336 6.00564 6.42336H15.6975L17.598 4.52289L6.00576 4.52311C3.28191 4.52311 1.09644 6.74014 1.09644 9.43243V26.1873C1.09644 28.9111 3.31347 31.0966 6.00576 31.0966H22.7289C25.4212 31.0966 27.6383 28.8796 27.6383 26.1873V14.5951L25.7378 16.4955L25.7377 26.1872Z" fill="#FF7C4B" stroke="#FF7C4B" stroke-width="0.222936"/>
<path d="M30.3619 5.18897L27.0045 1.83149C25.8958 0.722836 24.0906 0.722836 22.982 1.83149L8.53924 16.3059C8.41264 16.4325 8.31742 16.6227 8.28583 16.8127L6.95558 24.1608C6.89217 24.4776 6.98717 24.7942 7.20899 24.9842C7.4308 25.206 7.74739 25.301 8.03242 25.2376L15.3805 23.9074C15.5705 23.8758 15.7289 23.7808 15.8873 23.654L30.3617 9.17955C31.4699 8.10273 31.4704 6.2974 30.3619 5.18897ZM21.652 5.85398L23.3306 7.53263L13.0053 17.8579L11.3267 16.1793L21.652 5.85398ZM9.04623 23.1473L10.0599 17.5729L14.6208 22.1338L9.04623 23.1473ZM16.0142 20.8668L14.3356 19.1882L24.6609 8.86288L26.3395 10.5415L16.0142 20.8668ZM29.0317 7.84936L27.7014 9.17961L22.9821 4.52373L24.3124 3.19347C24.6924 2.81347 25.2942 2.81347 25.6427 3.19347L28.9999 6.55072C29.3799 6.89913 29.3799 7.50096 29.0317 7.84936Z" fill="#FF7C4B" stroke="#FF7C4B" stroke-width="0.222936"/>
</svg>
