<svg width="54" height="39" viewBox="0 0 54 39" fill="none" xmlns="http://www.w3.org/2000/svg">
<path d="M52.4972 4.1457C52.1291 3.92438 51.7064 3.80996 51.2766 3.81527C50.8003 3.8135 50.3333 3.94566 49.9288 4.1967L41.1032 9.71536V5.08675C41.1032 3.73754 40.5675 2.44386 39.6135 1.48977C38.6595 0.535687 37.3657 0 36.0165 0H5.49666C4.14746 0 2.85377 0.535778 1.89968 1.48977C0.945599 2.44377 0.409912 3.73754 0.409912 5.08675V33.0633C0.409912 34.4125 0.94569 35.7061 1.89968 36.6602C2.85368 37.6143 4.14746 38.15 5.49666 38.15H36.0165C37.3657 38.15 38.6594 37.6142 39.6135 36.6602C40.5675 35.7062 41.1032 34.4125 41.1032 33.0633V28.4346L49.9284 33.9538L49.9289 33.9533C50.3334 34.2043 50.8004 34.3365 51.2767 34.3347C51.7065 34.3401 52.1292 34.2256 52.4973 34.0043C52.8951 33.7865 53.2273 33.4668 53.4597 33.0778C53.6921 32.6888 53.8168 32.2449 53.8199 31.7916V6.35842C53.8168 5.90514 53.6921 5.46118 53.4597 5.07223C53.2273 4.68327 52.8951 4.36348 52.4973 4.14571L52.4972 4.1457ZM38.56 33.0635C38.56 33.738 38.2921 34.3852 37.8149 34.8619C37.3381 35.3387 36.691 35.6071 36.0164 35.6071H5.49661C4.82201 35.6071 4.17488 35.3387 3.69812 34.8619C3.22089 34.3852 2.953 33.7381 2.953 33.0635V5.08695C2.953 4.41236 3.22089 3.76522 3.69812 3.28847C4.1749 2.81168 4.82199 2.54335 5.49661 2.54335H36.0164C36.691 2.54335 37.3382 2.81168 37.8149 3.28847C38.2921 3.76525 38.56 4.41234 38.56 5.08695V33.0635ZM51.2766 31.7919L41.1031 25.4336V12.717L51.2766 6.35873V31.7919Z" fill="#F4F3EF"/>
</svg>
