<svg width="31" height="42" viewBox="0 0 31 42" fill="none" xmlns="http://www.w3.org/2000/svg">
<path d="M1 19.662C1 20.7333 2.02906 21.5524 4.22135 22.209C3.28381 24.0262 2.78756 26.0446 2.78756 28.1109C2.78756 35.218 8.56952 41 15.6766 41C22.7743 41 28.5489 35.2177 28.5489 28.1109C28.5489 26.045 28.0529 24.0264 27.1154 22.2095C29.3064 21.5533 30.3365 20.7339 30.3365 19.662C30.3365 17.1619 24.1888 16.3009 20.2106 16.0053L19.9138 15.985C19.2966 14.134 19.7944 12.56 20.3006 11.604L20.6435 11.0446C20.7919 10.8339 20.9263 10.6727 20.9341 10.6636L20.9997 10.5733C21.5685 9.66169 21.8904 8.60359 21.931 7.51356C21.9945 5.85289 21.3882 4.25222 20.2238 3.00595C19.0638 1.76376 17.515 1.05247 15.8621 1.00247C14.1542 0.955592 12.5333 1.57748 11.3058 2.76811C10.077 3.95997 9.40044 5.55752 9.40044 7.26724C9.40044 8.44758 9.72389 9.59073 10.3514 10.596C10.3905 10.6538 10.5414 10.8763 10.6961 11.0823L11.0389 11.6082C11.5436 12.5623 12.0377 14.1292 11.4264 15.9742L11.1421 15.9883L11.1286 16.0024C7.20727 16.2933 1 17.1508 1 19.662ZM15.6771 39.4C9.45201 39.4 4.38807 34.3359 4.38807 28.111C4.38807 26.1731 4.88683 24.284 5.82466 22.6084C6.52436 22.7559 7.29029 22.8887 8.12471 23.0047C7.10125 24.5031 6.54284 26.2688 6.54284 28.111C6.54284 33.1433 10.6404 37.2368 15.6774 37.2368C20.7051 37.2368 24.7944 33.143 24.7944 28.111C24.7944 26.2707 24.2369 24.505 23.2162 23.005C24.0459 22.8894 24.8107 22.7565 25.5125 22.6087C26.4504 24.2844 26.9491 26.1732 26.9491 28.111C26.9488 34.3361 21.8927 39.4 15.6771 39.4ZM11.0536 23.3165L11.7855 25.7215C12.0964 26.7422 13.022 27.4278 14.0886 27.4278H17.384C18.4996 27.4278 19.4615 26.6712 19.7231 25.5884L20.2746 23.3171C20.6446 23.2896 21.0065 23.2552 21.3681 23.2205C22.5437 24.5855 23.1941 26.3047 23.1941 28.1106C23.1941 32.2604 19.8221 35.6367 15.6767 35.6367C11.5219 35.6367 8.14214 32.2604 8.14214 28.1106C8.14214 26.3022 8.79497 24.5827 9.97434 23.2205C10.3312 23.2549 10.6883 23.289 11.0536 23.3165ZM12.757 23.4168C13.7071 23.4599 14.6777 23.484 15.6684 23.484C16.6662 23.484 17.6453 23.4599 18.6044 23.4159L18.1684 25.2118C18.08 25.5743 17.7584 25.8278 17.384 25.8278H14.0887C13.7309 25.8278 13.4209 25.5978 13.3168 25.2556L12.757 23.4168ZM11.6933 9.72614C11.2395 8.9983 11.0004 8.14826 11.0004 7.26736C11.0004 5.99422 11.5042 4.80451 12.4201 3.91634C13.3342 3.02912 14.5505 2.56815 15.814 2.60127C17.0374 2.63846 18.1881 3.16972 19.0547 4.09786C19.926 5.03004 20.3797 6.22134 20.3329 7.45233C20.3029 8.24797 20.0732 9.01827 19.6685 9.68429C19.6175 9.74585 19.5247 9.86273 19.4185 10.0084L19.155 10.3862C19.1347 10.4199 19.1128 10.4546 19.0916 10.4899L19.0435 10.5656V10.5721C18.3084 11.8312 17.3997 14.194 18.5772 17.0116C18.7235 17.3629 18.9344 18.0029 18.7038 18.3416C18.4735 18.6823 17.7437 18.8857 16.7637 18.8595C16.0309 18.8473 15.3003 18.8473 14.5737 18.8595C13.5574 18.8829 12.8596 18.6817 12.6289 18.3416C12.3992 18.0032 12.6111 17.3638 12.7577 17.0132C13.9359 14.1932 13.028 11.8318 12.2927 10.5731L11.9452 10.0081H11.8898C11.7855 9.86307 11.6933 9.72614 11.6933 9.72614ZM10.9457 17.6222C10.8773 18.2432 10.9964 18.7847 11.3048 19.2395C11.8539 20.0504 12.9136 20.4611 14.4558 20.4611C14.5027 20.4611 14.5512 20.4608 14.5996 20.4598C15.3121 20.4483 16.0237 20.4483 16.738 20.4598C18.3122 20.4833 19.4694 20.0642 20.0281 19.2411C20.3366 18.7864 20.4562 18.2448 20.3887 17.6239C26.2064 18.0882 28.5657 19.2248 28.7409 19.6326C28.7384 19.6389 28.4356 20.2714 25.7299 20.9254C24.5799 21.197 23.1961 21.4211 21.622 21.5917C19.7506 21.7858 17.7481 21.8842 15.6684 21.8842C13.6152 21.8842 11.5596 21.783 9.72612 21.5923C8.13857 21.4205 6.75358 21.1958 5.61195 20.9264C3.0119 20.2979 2.62693 19.6901 2.59781 19.6901C2.78281 19.2204 5.15618 18.0817 10.9457 17.6222Z" fill="#F4F3EF" stroke="#F4F3EF" stroke-width="0.5"/>
</svg>
