<svg width="42" height="42" viewBox="0 0 42 42" fill="none" xmlns="http://www.w3.org/2000/svg">
<path d="M34.985 3.48414H30.7587V2.01061C30.7587 1.46314 30.2794 1 29.7129 1C29.1464 1 28.6672 1.46317 28.6672 2.01061V3.44211H13.4611V2.01061C13.4611 1.46314 12.9818 1 12.4153 1C11.8488 1 11.3695 1.46317 11.3695 2.01061V3.44211H7.10002C3.74502 3.48411 1 6.09483 1 9.33672V35.1473C1 38.3895 3.74502 41 7.05629 41H34.9414C38.2964 41 40.9977 38.3473 40.9977 35.1473L40.998 9.33672C41.0852 6.09483 38.3402 3.48407 34.9852 3.48407L34.985 3.48414ZM7.09994 5.50543H11.3263V6.93694C11.3263 7.4844 11.8056 7.94755 12.372 7.94755C12.9385 7.94755 13.4178 7.48437 13.4178 6.93694V5.50543H28.6239V6.93694C28.6239 7.4844 29.1032 7.94755 29.6697 7.94755C30.2361 7.94755 30.7154 7.48437 30.7154 6.93694V5.50543H34.9846C37.1632 5.50543 38.9496 7.23183 38.9496 9.3371V11.1055L3.13472 11.1052V9.33681C3.13472 7.23153 4.92118 5.50544 7.09971 5.50544L7.09994 5.50543ZM34.985 38.9371H7.09994C4.92142 38.9371 3.13495 37.2107 3.13495 35.1055V13.1685H38.9499V35.1476C38.9499 37.2528 37.1634 38.9369 34.9849 38.9369L34.985 38.9371Z" fill="#F4F3EF" stroke="#F4F3EF" stroke-width="0.2"/>
<path d="M32.1529 34.1366H31.3688L31.3685 28.9998C31.3685 27.2314 29.8872 25.7998 28.0572 25.7998H23.9181V24.0734C23.9181 23.1471 23.134 22.4313 22.2189 22.4313H21.9137V21.7156C22.8723 21.3367 23.5695 20.4104 23.5695 19.2735C23.5695 18.1365 22.6982 17.1262 22.001 16.3681C21.5217 15.8207 20.5196 15.8207 20.0404 16.3681L19.9097 16.5364C19.3432 17.1679 18.4718 18.1785 18.4718 19.3154C18.4718 20.4524 19.169 21.3787 20.1276 21.7576V22.4733H19.8662C18.9077 22.4733 18.167 23.2311 18.167 24.1154V25.8418H14.071C12.241 25.8418 10.7597 27.2733 10.7597 29.0418V34.1786H9.97558C9.49629 34.1786 9.10425 34.5575 9.10425 35.0207C9.10425 35.4838 9.49631 35.8627 9.97558 35.8627H32.1965C32.6758 35.8627 33.0678 35.4838 33.0678 35.0207C33.0241 34.5158 32.632 34.1366 32.1527 34.1366L32.1529 34.1366ZM21.0425 17.8418C21.3911 18.263 21.8266 18.8524 21.8266 19.2313C21.8266 19.7365 21.4783 20.1576 21.0425 20.1576C20.6067 20.1576 20.2584 19.7365 20.2584 19.2313C20.2584 18.8101 20.6939 18.263 21.0425 17.8418ZM19.9097 24.1156L22.0882 24.0736V25.8H19.9097V24.1156ZM14.071 27.5261H28.0136C28.8849 27.5261 29.5821 28.1998 29.5821 29.0419V29.7996C28.798 29.3365 27.8395 29.3365 27.0984 29.8416L26.2705 30.4311C26.0964 30.5574 25.8785 30.5574 25.704 30.4311L24.8327 29.8416C24.0486 29.2942 23.0027 29.2942 22.2183 29.8416L21.3904 30.4311C21.2162 30.5574 20.9983 30.5574 20.8239 30.4311L19.9526 29.8416C19.1684 29.2942 18.1226 29.2942 17.3382 29.8416L16.4668 30.4311C16.2927 30.5574 16.0748 30.5574 15.9003 30.4311L15.0293 29.8419C14.2886 29.3368 13.2866 29.3368 12.5022 29.7999V28.9995C12.5022 28.1575 13.1994 27.526 14.0708 27.526L14.071 27.5261ZM12.5025 31.8209C12.546 31.8209 12.546 31.8209 12.5897 31.7789L13.4176 31.1895C13.5918 31.0632 13.8097 31.0632 13.9842 31.1895L14.8121 31.7789C15.2041 32.0315 15.64 32.1578 16.1193 32.1578C16.5985 32.1578 17.0344 32.0315 17.4265 31.7366L18.2978 31.1472C18.4719 31.0209 18.6898 31.0209 18.8643 31.1472L19.7356 31.7366C20.5197 32.2841 21.5656 32.2841 22.35 31.7366L23.1779 31.1472C23.3521 31.0209 23.57 31.0209 23.7444 31.1472L24.6158 31.7366C25.3999 32.2841 26.4457 32.2841 27.2301 31.7366L28.0581 31.1472C28.2322 31.0209 28.4501 31.0209 28.6246 31.1472L29.4959 31.7366H29.5394V34.0102H12.5025L12.5025 31.8209Z" fill="#F4F3EF" stroke="#F4F3EF" stroke-width="0.2"/>
</svg>
