<svg width="61" height="48" viewBox="0 0 61 48" fill="none" xmlns="http://www.w3.org/2000/svg">
<line x1="50.75" y1="2.04999" x2="50.75" y2="18.55" stroke="#F4F3EF" stroke-width="2.5" stroke-linecap="round"/>
<line x1="42.45" y1="10.05" x2="58.95" y2="10.05" stroke="#F4F3EF" stroke-width="2.5" stroke-linecap="round"/>
<path fill-rule="evenodd" clip-rule="evenodd" d="M38 9H3.11937C1.95087 9 1 9.95054 1 11.1194V45.0306C1 45.616 1.23865 46.1466 1.62367 46.5304C1.62742 46.534 1.63002 46.5383 1.63263 46.5426C1.6354 46.5472 1.63819 46.5518 1.64237 46.5556C1.64825 46.5609 1.6551 46.564 1.66197 46.5672C1.66842 46.5702 1.67488 46.5733 1.68059 46.578C2.0595 46.9296 2.56283 47.15 3.11938 47.15H49.747C50.4293 47.15 51.031 46.8203 51.4192 46.3178C51.4212 46.3149 51.4236 46.3123 51.4259 46.3096C51.4282 46.307 51.4306 46.3044 51.4326 46.3015C51.7009 45.9462 51.8664 45.5091 51.8664 45.0306V23H49.747V42.3943L36.2822 20.8519C35.6821 19.9083 34.1441 19.9009 33.5354 20.8592L23.2567 37.309L17.0571 30.3023C16.4424 29.6006 15.2264 29.6047 14.6177 30.2983L3.11898 43.2885V11.1195L38 11.1179V9ZM27.2595 45.0306L15.8357 32.1195L4.4078 45.0306H27.2595ZM24.7208 38.9631L30.0894 45.0306L48.8956 45.0299L34.9104 22.6559L24.7208 38.9631Z" fill="#F4F3EF"/>
<path d="M38 9H38.25V8.75H38V9ZM1.62367 46.5304L1.44712 46.7075L1.45178 46.7119L1.62367 46.5304ZM1.63263 46.5426L1.84682 46.4137L1.8468 46.4137L1.63263 46.5426ZM1.64237 46.5556L1.47512 46.7414L1.4759 46.7421L1.64237 46.5556ZM1.66197 46.5672L1.55648 46.7939L1.5565 46.7939L1.66197 46.5672ZM1.68059 46.578L1.85065 46.3947L1.84544 46.3899L1.83995 46.3854L1.68059 46.578ZM51.4192 46.3178L51.6172 46.4707L51.6226 46.4631L51.4192 46.3178ZM51.4259 46.3096L51.2388 46.1439L51.2385 46.1442L51.4259 46.3096ZM51.4326 46.3015L51.233 46.1508L51.2292 46.1562L51.4326 46.3015ZM51.8664 23H52.1164V22.75H51.8664V23ZM49.747 23V22.75H49.497V23H49.747ZM49.747 42.3943L49.535 42.5268L49.997 43.2659V42.3943H49.747ZM36.2822 20.8519L36.4942 20.7194L36.4931 20.7177L36.2822 20.8519ZM33.5354 20.8592L33.3244 20.7252L33.3234 20.7267L33.5354 20.8592ZM23.2567 37.309L23.0695 37.4746L23.2913 37.7254L23.4687 37.4415L23.2567 37.309ZM17.0571 30.3023L16.8691 30.4671L16.8699 30.468L17.0571 30.3023ZM14.6177 30.2983L14.8049 30.464L14.8056 30.4632L14.6177 30.2983ZM3.11898 43.2885H2.86898V43.9481L3.30618 43.4542L3.11898 43.2885ZM3.11898 11.1195L3.11897 10.8695L2.86898 10.8695V11.1195H3.11898ZM38 11.1179L38 11.3679L38.25 11.3679V11.1179H38ZM15.8357 32.1195L16.023 31.9539L15.8358 31.7423L15.6485 31.9538L15.8357 32.1195ZM27.2595 45.0306V45.2806H27.8145L27.4467 44.865L27.2595 45.0306ZM4.4078 45.0306L4.2206 44.8649L3.85265 45.2806H4.4078V45.0306ZM30.0894 45.0306L29.9022 45.1963L29.9768 45.2806L30.0894 45.2806L30.0894 45.0306ZM24.7208 38.9631L24.5088 38.8306L24.4099 38.9889L24.5336 39.1288L24.7208 38.9631ZM48.8956 45.0299L48.8956 45.2799L49.3467 45.2799L49.1076 44.8974L48.8956 45.0299ZM34.9104 22.6559L35.1224 22.5234L34.9104 22.1842L34.6984 22.5234L34.9104 22.6559ZM38 8.75H3.11937V9.25H38V8.75ZM3.11937 8.75C1.81283 8.75 0.75 9.81244 0.75 11.1194H1.25C1.25 10.0886 2.08892 9.25 3.11937 9.25V8.75ZM0.75 11.1194V45.0306H1.25V11.1194H0.75ZM0.75 45.0306C0.75 45.6854 1.0172 46.2789 1.44718 46.7075L1.80016 46.3533C1.46011 46.0144 1.25 45.5467 1.25 45.0306H0.75ZM1.45178 46.7119C1.43787 46.6988 1.42869 46.6866 1.42371 46.6795C1.41943 46.6734 1.41639 46.6681 1.41846 46.6716L1.8468 46.4137C1.84626 46.4128 1.84061 46.4032 1.83344 46.3929C1.82557 46.3817 1.81321 46.3656 1.79556 46.3489L1.45178 46.7119ZM1.41845 46.6716C1.41902 46.6725 1.4252 46.683 1.43319 46.6942C1.44199 46.7066 1.45562 46.7239 1.47513 46.7414L1.80961 46.3698C1.82494 46.3836 1.83509 46.3966 1.84075 46.4046C1.84561 46.4114 1.84902 46.4173 1.84682 46.4137L1.41845 46.6716ZM1.4759 46.7421C1.51363 46.7758 1.55451 46.793 1.55648 46.7939L1.76747 46.3406C1.76261 46.3383 1.76775 46.3406 1.774 46.3441C1.78148 46.3483 1.79447 46.3563 1.80883 46.3691L1.4759 46.7421ZM1.5565 46.7939C1.56092 46.796 1.55669 46.7941 1.55145 46.7912C1.54519 46.7878 1.53399 46.7812 1.52122 46.7706L1.83995 46.3854C1.80561 46.3569 1.76971 46.3416 1.76745 46.3406L1.5565 46.7939ZM1.51052 46.7612C1.93211 47.1525 2.49506 47.4 3.11938 47.4V46.9C2.6306 46.9 2.18688 46.7068 1.85065 46.3947L1.51052 46.7612ZM3.11938 47.4H49.747V46.9H3.11938V47.4ZM49.747 47.4C50.5125 47.4 51.1851 47.0296 51.617 46.4706L51.2214 46.1649C50.8768 46.6109 50.346 46.9 49.747 46.9V47.4ZM51.6226 46.4631C51.6187 46.4686 51.6154 46.4726 51.6139 46.4743C51.6127 46.4758 51.6117 46.4769 51.6133 46.4751L51.2385 46.1442C51.2378 46.145 51.2266 46.1573 51.2158 46.1724L51.6226 46.4631ZM51.613 46.4754C51.614 46.4743 51.6251 46.4621 51.636 46.4468L51.2292 46.1562C51.2331 46.1507 51.2364 46.1467 51.2379 46.1449C51.2393 46.1433 51.2402 46.1422 51.2388 46.1439L51.613 46.4754ZM51.6321 46.4522C51.9302 46.0575 52.1164 45.5683 52.1164 45.0306H51.6164C51.6164 45.4499 51.4717 45.8349 51.2331 46.1509L51.6321 46.4522ZM52.1164 45.0306V23H51.6164V45.0306H52.1164ZM51.8664 22.75H49.747V23.25H51.8664V22.75ZM49.497 23V42.3943H49.997V23H49.497ZM49.959 42.2618L36.4942 20.7194L36.0702 20.9844L49.535 42.5268L49.959 42.2618ZM36.4931 20.7177C36.1392 20.1612 35.5171 19.8923 34.912 19.8923C34.3065 19.8923 33.6824 20.1615 33.3244 20.7252L33.7464 20.9932C33.9971 20.5986 34.4463 20.3923 34.912 20.3923C35.3781 20.3923 35.8251 20.5989 36.0712 20.986L36.4931 20.7177ZM33.3234 20.7267L23.0447 37.1765L23.4687 37.4415L33.7474 20.9917L33.3234 20.7267ZM23.4439 37.1433L17.2443 30.1367L16.8699 30.468L23.0695 37.4746L23.4439 37.1433ZM17.2452 30.1376C16.8831 29.7243 16.3524 29.5271 15.8351 29.5271C15.3181 29.5271 14.7889 29.7242 14.4298 30.1334L14.8056 30.4632C15.0552 30.1788 15.4383 30.0271 15.8351 30.0271C16.2318 30.0271 16.6164 30.1786 16.8691 30.4671L17.2452 30.1376ZM14.4305 30.1326L2.93178 43.1228L3.30618 43.4542L14.8049 30.464L14.4305 30.1326ZM3.36898 43.2885V11.1195H2.86898V43.2885H3.36898ZM3.11899 11.3695L38 11.3679L38 10.8679L3.11897 10.8695L3.11899 11.3695ZM38.25 11.1179V9H37.75V11.1179H38.25ZM15.6485 32.2852L27.0723 45.1963L27.4467 44.865L16.023 31.9539L15.6485 32.2852ZM4.595 45.1963L16.0229 32.2852L15.6485 31.9538L4.2206 44.8649L4.595 45.1963ZM27.2595 44.7806H4.4078V45.2806H27.2595V44.7806ZM30.2767 44.865L24.908 38.7974L24.5336 39.1288L29.9022 45.1963L30.2767 44.865ZM48.8956 44.7799L30.0894 44.7806L30.0894 45.2806L48.8956 45.2799L48.8956 44.7799ZM34.6984 22.7884L48.6836 45.1624L49.1076 44.8974L35.1224 22.5234L34.6984 22.7884ZM24.9328 39.0956L35.1224 22.7884L34.6984 22.5234L24.5088 38.8306L24.9328 39.0956Z" fill="#F4F3EF"/>
<path d="M22.194 24.8952C25.1155 24.8952 27.4927 22.5181 27.4927 19.5965C27.4927 16.675 25.1155 14.2979 22.194 14.2979C19.2724 14.2979 16.8953 16.675 16.8953 19.5965C16.8953 22.5181 19.2724 24.8952 22.194 24.8952ZM22.194 16.4176C23.9471 16.4176 25.3733 17.8438 25.3733 19.597C25.3733 21.3501 23.9471 22.7763 22.194 22.7763C20.4408 22.7763 19.0146 21.3501 19.0146 19.597C19.0146 17.8438 20.4408 16.4176 22.194 16.4176Z" fill="#F4F3EF" stroke="#F4F3EF" stroke-width="0.5"/>
</svg>
