<svg width="44" height="31" viewBox="0 0 44 31" fill="none" xmlns="http://www.w3.org/2000/svg">
<path d="M43.7818 15.15C43.7818 15.15 35.5727 0.0999756 21.8909 0.0999756C8.20909 0.0999756 0 15.15 0 15.15C0 15.15 8.20909 30.2 21.8909 30.2C35.5727 30.2 43.7818 15.15 43.7818 15.15ZM3.20975 15.15C4.53283 13.1391 6.05459 11.2662 7.75212 9.55958C11.2738 6.03241 16.0898 2.83634 21.8909 2.83634C27.692 2.83634 32.5053 6.03241 36.0324 9.55958C37.73 11.2662 39.2517 13.1391 40.5748 15.15C40.4161 15.388 40.241 15.6507 40.0412 15.938C39.1245 17.2515 37.77 19.0028 36.0324 20.7404C32.5053 24.2675 27.6893 27.4636 21.8909 27.4636C16.0898 27.4636 11.2766 24.2675 7.74938 20.7404C6.05187 19.0337 4.53011 17.1609 3.20702 15.15H3.20975Z" fill="#FF7C4B"/>
<path d="M21.891 8.30912C20.0767 8.30912 18.3367 9.02985 17.0537 10.3128C15.7708 11.5957 15.0501 13.3357 15.0501 15.15C15.0501 16.9643 15.7708 18.7044 17.0537 19.9873C18.3367 21.2702 20.0767 21.9909 21.891 21.9909C23.7053 21.9909 25.4453 21.2702 26.7282 19.9873C28.0112 18.7044 28.7319 16.9643 28.7319 15.15C28.7319 13.3357 28.0112 11.5957 26.7282 10.3128C25.4453 9.02985 23.7053 8.30912 21.891 8.30912ZM12.3137 15.15C12.3137 12.61 13.3228 10.174 15.1188 8.37787C16.9149 6.58179 19.3509 5.57275 21.891 5.57275C24.431 5.57275 26.8671 6.58179 28.6631 8.37787C30.4592 10.174 31.4683 12.61 31.4683 15.15C31.4683 17.6901 30.4592 20.1261 28.6631 21.9222C26.8671 23.7183 24.431 24.7273 21.891 24.7273C19.3509 24.7273 16.9149 23.7183 15.1188 21.9222C13.3228 20.1261 12.3137 17.6901 12.3137 15.15Z" fill="#FF7C4B"/>
</svg>
