<svg width="25" height="46" viewBox="0 0 25 46" fill="none" xmlns="http://www.w3.org/2000/svg">
<path d="M5.48263 10.5599H5.86546V3.91791C5.86546 2.31269 7.15176 1 8.72613 1H16.7406C18.3122 1 19.6012 2.3145 19.6012 3.91791V10.5599H19.9841C22.4456 10.5599 24.4667 12.6212 24.4667 15.1312V37.3151C24.4667 39.7711 22.5321 41.7955 20.1433 41.883V43.5284C20.1433 44.3389 19.4941 45 18.6993 45H16.9634C16.1676 45 15.5203 44.3398 15.5203 43.5284V41.8864H9.94639V43.5284C9.94639 44.3389 9.29721 45 8.50237 45H6.76643C5.97069 45 5.32334 44.3398 5.32334 43.5284V41.883C2.93457 41.7955 1 39.7711 1 37.3151V15.1312C1 12.621 3.02125 10.5599 5.48259 10.5599H5.48263ZM18.4304 41.8864H17.2331V43.2531H18.4304V41.8864ZM8.2332 41.8864H7.03597V43.2531H8.2332V41.8864ZM7.578 10.5599H17.8877V3.91791C17.8877 3.27522 17.3712 2.74672 16.74 2.74672H8.72562C8.09269 2.74672 7.578 3.27247 7.578 3.91791V10.5599ZM19.9841 12.3066H5.4831C3.95687 12.3066 2.71333 13.5748 2.71333 15.1312V37.315C2.71333 38.8714 3.95695 40.1396 5.4831 40.1396H19.9841C21.5103 40.1396 22.7539 38.8714 22.7539 37.315V15.1312C22.7539 13.5747 21.5103 12.3066 19.9841 12.3066Z" fill="#F4F3EF" stroke="#F4F3EF" stroke-width="0.310885"/>
<path d="M8.75091 19.6029V32.8422H7.03784V19.6029H8.75091Z" fill="#F4F3EF" stroke="#F4F3EF" stroke-width="0.310885"/>
<path d="M13.588 17.1857V35.2602H11.8752V17.1857H13.588Z" fill="#F4F3EF" stroke="#F4F3EF" stroke-width="0.310885"/>
<path d="M18.4256 19.6029V32.8422H16.7129V19.6029H18.4256Z" fill="#F4F3EF" stroke="#F4F3EF" stroke-width="0.310885"/>
</svg>
