<svg width="29" height="32" viewBox="0 0 29 32" fill="none" xmlns="http://www.w3.org/2000/svg">
<path d="M3.68098 11.9143L3.68091 11.9144C3.58311 11.9945 3.50388 12.0964 3.44931 12.2125C3.39474 12.3287 3.36631 12.4562 3.36625 12.5854C3.36625 12.5854 3.36625 12.5854 3.36625 12.5854V28.0173C3.36625 28.4961 3.74422 28.8761 4.20226 28.8761H8.21511C8.4356 28.8761 8.64784 28.7866 8.80493 28.6259C8.96214 28.4651 9.05112 28.2463 9.05112 28.0173V19.8088C9.05112 18.9493 9.38492 18.1242 9.98027 17.5153C10.5757 16.9063 11.3842 16.5634 12.228 16.5634H16.9096C17.3274 16.5634 17.7411 16.6476 18.1269 16.8111C18.5127 16.9746 18.8629 17.2142 19.1578 17.5158C19.4526 17.8175 19.6863 18.1754 19.8455 18.5691C20.0048 18.9627 20.0866 19.3844 20.0864 19.8102C20.0864 19.8102 20.0864 19.8102 20.0864 19.8103V28.0187C20.0864 28.4975 20.4644 28.8775 20.9224 28.8775H24.9353C25.1558 28.8775 25.368 28.788 25.5251 28.6273C25.6823 28.4665 25.7713 28.2476 25.7713 28.0187V12.5867V12.5866C25.7714 12.4575 25.7431 12.3301 25.6888 12.2139C25.6344 12.0978 25.5554 11.9959 25.4579 11.9157L3.68098 11.9143ZM3.68098 11.9143L14.0474 3.40765C14.1958 3.28603 14.3797 3.22017 14.5688 3.22017C14.755 3.22017 14.9361 3.28405 15.0833 3.40214L15.0843 3.40318L15.0914 3.40896L25.4578 11.9155L3.68098 11.9143ZM12.5794 1.54843L12.5182 1.59859V1.59997L2.21283 10.0565L2.21281 10.0565C1.46193 10.6729 1.02543 11.6044 1.02543 12.5867V28.0187C1.02543 28.8782 1.35923 29.7032 1.95458 30.3121C2.55004 30.9212 3.35848 31.264 4.20226 31.264H8.21511C9.05889 31.264 9.86732 30.9212 10.4628 30.3121C11.0581 29.7032 11.3919 28.8782 11.3919 28.0187V19.8102C11.3919 19.5812 11.4809 19.3623 11.6381 19.2015C11.7952 19.0409 12.0075 18.9513 12.228 18.9513H16.9096C17.1301 18.9513 17.3423 19.0409 17.4994 19.2015C17.6566 19.3623 17.7456 19.5812 17.7456 19.8102V28.0187C17.7456 28.8782 18.0794 29.7032 18.6748 30.3121C19.2702 30.9212 20.0787 31.264 20.9224 31.264H24.9353C25.7791 31.264 26.5875 30.9212 27.183 30.3121C27.7783 29.7032 28.1121 28.8782 28.1121 28.0187V12.5868C28.1121 12.5868 28.1121 12.5868 28.1121 12.5867C28.1123 12.1012 28.0059 11.6216 27.8005 11.1835C27.5951 10.7453 27.2959 10.3597 26.9247 10.0551L16.5582 1.54843L16.4521 1.67768L16.5582 1.54843C15.9944 1.08582 15.2927 0.833286 14.5688 0.833286C13.8449 0.833286 13.1431 1.08582 12.5794 1.54843Z" fill="#363636" stroke="#363636" stroke-width="0.334404"/>
</svg>
