<svg width="42" height="42" viewBox="0 0 42 42" fill="none" xmlns="http://www.w3.org/2000/svg">
<path d="M38.3371 4.40004V2.33335C38.3371 1.97977 38.1966 1.64048 37.9466 1.39048C37.6966 1.14048 37.3573 1 37.0037 1H27.6703C27.3167 1 26.9774 1.14048 26.7274 1.39048C26.4774 1.64048 26.337 1.97977 26.337 2.33335V4.40004C25.247 4.62146 24.3393 5.37147 23.917 6.40036C23.4943 7.42894 23.6128 8.60069 24.2325 9.5242C24.8521 10.4477 25.8914 11.0013 27.0036 11.0001C27.2274 11.0001 27.4509 10.9778 27.6703 10.9334V18.3335H14.3368V10.9334C14.5562 10.9778 14.7797 11.0001 15.0035 11.0001C16.1157 11.0013 17.155 10.4477 17.7746 9.5242C18.3943 8.60069 18.5127 7.42894 18.0901 6.40036C17.6678 5.37147 16.76 4.62145 15.6701 4.40004V2.33335C15.6701 1.97977 15.5296 1.64048 15.2796 1.39048C15.0296 1.14048 14.6903 1 14.3368 1H5.00334C4.64977 1 4.31047 1.14048 4.06047 1.39048C3.81047 1.64048 3.66999 1.97977 3.66999 2.33335V4.40004C2.58008 4.62146 1.67233 5.37147 1.25001 6.40036C0.827381 7.42894 0.945835 8.60069 1.56548 9.5242C2.18513 10.4477 3.2244 11.0013 4.33664 11.0001C4.56045 11.0001 4.78396 10.9778 5.00331 10.9334V37H4.33664C3.80628 37 3.29731 37.2107 2.92237 37.5857C2.54744 37.9607 2.33665 38.4697 2.33665 39V40.3333C2.33665 40.5101 2.40689 40.6798 2.53189 40.8048C2.65689 40.9298 2.82654 41 3.00333 41H16.3368C16.5136 41 16.6832 40.9298 16.8082 40.8048C16.9332 40.6798 17.0035 40.5101 17.0035 40.3333V39C17.0035 38.4696 16.7928 37.9607 16.4178 37.5857C16.0427 37.2108 15.5338 37 15.0035 37H14.3368V27.6666H27.6703V37H27.0036C26.4733 37 25.9643 37.2107 25.5894 37.5857C25.2144 37.9607 25.0036 38.4697 25.0036 39V40.3333C25.0036 40.5101 25.0739 40.6798 25.1989 40.8048C25.3239 40.9298 25.4935 41 25.6703 41H39.0038C39.1806 41 39.3502 40.9298 39.4752 40.8048C39.6002 40.6798 39.6705 40.5101 39.6705 40.3333V39C39.6705 38.4696 39.4597 37.9607 39.0847 37.5857C38.7097 37.2108 38.2008 37 37.6705 37H37.0038V10.9334C37.2231 10.9778 37.4467 11.0001 37.6705 11.0001C38.7827 11.0013 39.822 10.4477 40.4416 9.5242C41.0613 8.60069 41.1797 7.42894 40.7571 6.40036C40.3348 5.37147 39.427 4.62145 38.3371 4.40004H38.3371ZM37.0037 4.33337H35.6704V2.33335H37.0037V4.33337ZM30.337 2.33335H31.6703V4.33337H30.337V2.33335ZM33.0037 2.33335H34.337V4.33337H33.0037V2.33335ZM27.6703 2.33335H29.0037V4.33337H27.6703V2.33335ZM14.3368 4.33337H13.0035V2.33335H14.3368V4.33337ZM7.6701 2.33335H9.00344V4.33337H7.6701V2.33335ZM10.3368 2.33335H11.6701V4.33337H10.3368V2.33335ZM5.0034 2.33335H6.33675V4.33337H5.0034V2.33335ZM2.33671 7.66674C2.33671 7.13638 2.54742 6.62741 2.92243 6.25247C3.29743 5.87754 3.8064 5.66675 4.33669 5.66675H15.0035C15.4951 5.66497 15.9704 5.84413 16.3383 6.17063C16.7062 6.49682 16.941 6.94709 16.9979 7.43556C17.0544 7.92426 16.9294 8.41621 16.6464 8.81828C16.3633 9.22036 15.9419 9.504 15.4627 9.61501C14.9839 9.72602 14.4806 9.65697 14.0496 9.42036C13.6184 9.18405 13.2895 8.79714 13.1255 8.33342H15.0035V7.00007H13.0034C12.4457 6.9968 11.8996 7.1593 11.4341 7.46674L10.5007 8.08937C10.2531 8.2489 9.96499 8.33342 9.6706 8.33342C9.37626 8.33342 9.08816 8.24889 8.8405 8.08937L7.90716 7.46674C7.44168 7.159 6.89496 6.9965 6.33663 7.00007H4.33661V8.33342H6.21129C6.07647 8.72301 5.82319 9.06111 5.48718 9.30013C5.15116 9.53912 4.74908 9.6674 4.33654 9.6668C3.80618 9.6668 3.29721 9.45609 2.92228 9.08108C2.54734 8.70608 2.33655 8.19711 2.33655 7.66682L2.33671 7.66674ZM7.46415 8.77479L8.10077 9.19949C8.56684 9.50545 9.11236 9.66885 9.67016 9.66885C10.228 9.66885 10.7734 9.50545 11.2395 9.19949L11.8762 8.77479C12.0904 9.39056 12.483 9.92893 13.0036 10.3215V13.0001H11.6702V11.0001H10.3369V13.0001H9.00352V11.0001H7.67017V13.0001H6.33683V10.3215C6.85736 9.92898 7.2499 9.39056 7.46423 8.77479H7.46415ZM15.67 39.0006V39.6673H3.66983V39.0006C3.66983 38.6325 3.96834 38.334 4.3365 38.334H15.0033C15.1801 38.334 15.3497 38.4042 15.4747 38.5292C15.5997 38.6542 15.67 38.8238 15.67 39.0006ZM38.3369 39.0006V39.6673H26.3367V39.0006C26.3367 38.6325 26.6352 38.334 27.0034 38.334H37.6702C37.847 38.334 38.0166 38.4042 38.1416 38.5292C38.2666 38.6542 38.3369 38.8238 38.3369 39.0006ZM29.0034 37.0006V27.0005C29.0034 26.8237 28.9332 26.6541 28.8082 26.5291C28.6832 26.4041 28.5135 26.3338 28.3368 26.3338H13.6699C13.3018 26.3338 13.0033 26.6323 13.0033 27.0005V37.0006H6.33652V14.3337H13.0033V19.0004C13.0033 19.1772 13.0735 19.3469 13.1985 19.4719C13.3235 19.5968 13.4931 19.6671 13.6699 19.6671H28.3368C28.5135 19.6671 28.6832 19.5969 28.8082 19.4719C28.9332 19.3468 29.0034 19.1772 29.0034 19.0004V14.3337H35.6702V37.0006H29.0034ZM35.6702 13.0004H34.3368V11.0003H33.0035V13.0004H31.6701V11.0003H30.3368V13.0004H29.0034V10.3218C29.524 9.92921 29.9165 9.39079 30.1308 8.77501L30.7674 9.19972C31.2335 9.50567 31.779 9.66907 32.3368 9.66907C32.8946 9.66907 33.4401 9.50568 33.9062 9.19972L34.5428 8.77501C34.7571 9.39079 35.1497 9.92916 35.6702 10.3218L35.6702 13.0004ZM37.6702 9.66699C37.2574 9.66758 36.8547 9.5396 36.5181 9.30061C36.1815 9.06162 35.9276 8.72353 35.7922 8.33367H37.6702V7.00032H35.6701C35.1124 6.99705 34.5663 7.15955 34.1007 7.46699L33.1674 8.08962C32.9198 8.24915 32.6317 8.33367 32.3373 8.33367C32.043 8.33367 31.7549 8.24914 31.5072 8.08962L30.5739 7.46699C30.1084 7.15925 29.5617 6.99675 29.0033 7.00032H27.0033V8.33367H28.878C28.7432 8.72326 28.4899 9.06136 28.1539 9.30038C27.8179 9.53937 27.4158 9.66765 27.0032 9.66706C26.2886 9.66706 25.6285 9.2858 25.2711 8.66704C24.914 8.04829 24.914 7.28577 25.2711 6.66702C25.6285 6.04827 26.2886 5.66701 27.0032 5.66701H37.67C38.3846 5.66701 39.0447 6.04827 39.4021 6.66702C39.7593 7.28578 39.7593 8.0483 39.4021 8.66704C39.0447 9.2858 38.3846 9.66706 37.67 9.66706L37.6702 9.66699Z" fill="#F4F3EF" stroke="#F4F3EF" stroke-width="0.4"/>
<path d="M7.67017 15.6669H9.00351V25.0003H7.67017V15.6669Z" fill="#F4F3EF" stroke="#F4F3EF" stroke-width="0.4"/>
<path d="M10.3369 18.3335H11.6703V33.0003H10.3369V18.3335Z" fill="#F4F3EF" stroke="#F4F3EF" stroke-width="0.4"/>
<path d="M10.3369 34.3337H11.6703V35.6671H10.3369V34.3337Z" fill="#F4F3EF" stroke="#F4F3EF" stroke-width="0.4"/>
<path d="M30.3369 34.3337H31.6703V35.6671H30.3369V34.3337Z" fill="#F4F3EF" stroke="#F4F3EF" stroke-width="0.4"/>
<path d="M30.3369 18.3335H31.6703V33.0003H30.3369V18.3335Z" fill="#F4F3EF" stroke="#F4F3EF" stroke-width="0.4"/>
<path d="M30.3369 15.6669H31.6703V17.0002H30.3369V15.6669Z" fill="#F4F3EF" stroke="#F4F3EF" stroke-width="0.4"/>
<path d="M33.0037 26.3336H34.337V35.667H33.0037V26.3336Z" fill="#F4F3EF" stroke="#F4F3EF" stroke-width="0.4"/>
<path d="M7.67017 26.3336H9.00351V35.667H7.67017V26.3336Z" fill="#F4F3EF" stroke="#F4F3EF" stroke-width="0.4"/>
<path d="M33.0037 15.6669H34.337V25.0003H33.0037V15.6669Z" fill="#F4F3EF" stroke="#F4F3EF" stroke-width="0.4"/>
<path d="M10.3369 15.6669H11.6703V17.0002H10.3369V15.6669Z" fill="#F4F3EF" stroke="#F4F3EF" stroke-width="0.4"/>
<path d="M13.6702 22.3335H15.0035V23.6668H13.6702V22.3335Z" fill="#F4F3EF" stroke="#F4F3EF" stroke-width="0.4"/>
<path d="M16.3369 22.3335H17.6703V23.6668H16.3369V22.3335Z" fill="#F4F3EF" stroke="#F4F3EF" stroke-width="0.4"/>
<path d="M19.0037 22.3335H20.337V23.6668H19.0037V22.3335Z" fill="#F4F3EF" stroke="#F4F3EF" stroke-width="0.4"/>
<path d="M21.6702 22.3335H23.0035V23.6668H21.6702V22.3335Z" fill="#F4F3EF" stroke="#F4F3EF" stroke-width="0.4"/>
<path d="M24.3369 22.3335H25.6703V23.6668H24.3369V22.3335Z" fill="#F4F3EF" stroke="#F4F3EF" stroke-width="0.4"/>
<path d="M27.0037 22.3335H28.337V23.6668H27.0037V22.3335Z" fill="#F4F3EF" stroke="#F4F3EF" stroke-width="0.4"/>
</svg>
