<svg width="90" height="41" viewBox="0 0 90 41" fill="none" xmlns="http://www.w3.org/2000/svg">
<path d="M70.9529 38.6667V39.5382L71.7941 39.3101L75.1745 38.3934L75.6667 38.26V37.75V37.5972V37.4445C75.6667 35.5588 75.2327 33.841 74.3533 32.3076C73.5247 30.7732 72.3347 29.5651 70.7965 28.6912C69.8447 28.1504 68.7953 27.7799 67.6538 27.5746C67.6673 27.5443 67.6807 27.5139 67.6941 27.4835C68.8158 25.09 69.3668 22.3449 69.3668 19.2639C69.3668 16.1312 68.8155 13.3354 67.6941 10.8916C66.6248 8.5008 65.0912 6.59518 63.0894 5.19656L63.0864 5.19446C61.118 3.83535 58.8054 3.16667 56.1772 3.16667C52.2553 3.16667 49.0213 4.59237 46.5325 7.44354L46.5324 7.44345L46.5238 7.45372C46.0843 7.97808 45.6853 8.53764 45.3265 9.13189C44.9274 8.199 44.4123 7.3574 43.7791 6.61107C42.3149 4.87568 40.3838 4.00695 38.0459 4.00695C35.9039 4.00695 34.166 4.6685 32.9357 6.06652L32.9356 6.06643L32.9269 6.07671C32.5328 6.54318 32.1775 7.03265 31.8612 7.54491L31.8049 7.26307L31.7102 7.49314C31.1923 6.03663 30.4431 4.80608 29.4502 3.81891L29.4503 3.81885L29.4424 3.81127C27.7338 2.16722 25.6999 1.33333 23.3718 1.33333C20.1222 1.33333 17.4736 3.02491 15.4361 6.22185C13.3392 9.43153 12.3333 13.985 12.3333 19.7986C12.3333 23.3232 12.8285 26.4829 13.8326 29.2678C14.8342 32.0459 16.2458 34.262 18.0879 35.8796C19.9514 37.5673 22.1585 38.4167 24.6778 38.4167C27.5522 38.4167 29.8763 37.2473 31.5898 34.939C33.2918 32.6463 34.1029 29.5346 34.1029 25.6806V15.3681C34.1029 13.3737 34.5179 11.7765 35.3024 10.5352C36.036 9.42265 37.1194 8.85417 38.6605 8.85417C40.0169 8.85417 41.1005 9.42403 41.9577 10.6351L41.9577 10.6351L41.9604 10.639C42.6385 11.5828 43.1218 12.7682 43.3918 14.2167C43.0698 15.764 42.9108 17.4474 42.9108 19.2639C42.9108 22.3441 43.436 25.088 44.5054 27.4804L44.5054 27.4804L44.5082 27.4865C45.6282 29.9259 47.1886 31.8352 49.1983 33.1853L49.1982 33.1854L49.2051 33.1899C51.2662 34.5381 53.5969 35.2083 56.1772 35.2083C58.8038 35.2083 61.1153 34.5405 63.0829 33.183C63.912 32.6255 64.6621 31.9715 65.3326 31.2221C66.9727 31.406 68.2242 31.9927 69.1428 32.9426L69.1432 32.943C70.3212 34.1593 70.9529 35.908 70.9529 38.2847V38.5139V38.6667ZM18.9588 9.66049L18.9588 9.6605L18.9611 9.65649C20.2594 7.31373 21.9081 6.25695 23.9095 6.25695C25.5833 6.25695 26.8946 6.93735 27.8998 8.34564C28.9287 9.78717 29.4659 11.6291 29.4659 13.9167L29.4659 24.7639C29.4659 27.8691 28.9327 30.0463 27.9741 31.4079L27.974 31.4079L27.9683 31.4163C27.0072 32.8269 25.7724 33.4931 24.2169 33.4931C22.9292 33.4931 21.7611 32.9932 20.6919 31.93L20.6816 31.9198L20.6709 31.9101C19.5502 30.8886 18.6277 29.37 17.9344 27.302C17.2465 25.2498 16.8934 22.7536 16.8934 19.7986C16.8934 15.4283 17.6027 12.0683 18.9588 9.66049ZM62.415 11.4272L62.415 11.4273L62.4211 11.4348C64.0459 13.4304 64.8835 16.0215 64.8835 19.2639C64.8835 22.507 64.0456 25.0687 62.4261 27.0105L62.4205 27.0173L62.415 27.0242C60.856 28.997 58.7982 29.9792 56.1772 29.9792C53.5558 29.9792 51.4683 28.9962 49.8565 27.0166L49.8566 27.0166L49.8515 27.0105C48.232 25.0687 47.3941 22.507 47.3941 19.2639C47.3941 16.0215 48.2318 13.4304 49.8565 11.4348C51.4683 9.45523 53.5558 8.47223 56.1772 8.47223C58.7982 8.47223 60.8561 9.45444 62.415 11.4272Z" fill="#FF7C4B" stroke="#FF7C4B" stroke-width="1.33333"/>
<path d="M18.9999 15.3333C18.9999 14.1534 19.2085 13.2979 19.6256 12.767C20.0427 12.2557 20.7181 12 21.6517 12C22.6051 12 23.2904 12.2557 23.7076 12.767C24.1247 13.2979 24.3333 14.1534 24.3333 15.3333C24.3333 16.5133 24.1247 17.3589 23.7076 17.8702C23.2904 18.4012 22.6051 18.6667 21.6517 18.6667C20.7181 18.6667 20.0427 18.4012 19.6256 17.8702C19.2085 17.3589 18.9999 16.5133 18.9999 15.3333Z" fill="#363636"/>
<path d="M50.3332 15.3333C50.3332 14.1534 50.5417 13.2979 50.9589 12.767C51.376 12.2557 52.0514 12 52.9849 12C53.9384 12 54.6237 12.2557 55.0408 12.767C55.4579 13.2979 55.6665 14.1534 55.6665 15.3333C55.6665 16.5133 55.4579 17.3589 55.0408 17.8702C54.6237 18.4012 53.9384 18.6667 52.9849 18.6667C52.0514 18.6667 51.376 18.4012 50.9589 17.8702C50.5417 17.3589 50.3332 16.5133 50.3332 15.3333Z" fill="#363636"/>
</svg>
