<svg width="66" height="42" viewBox="0 0 66 42" fill="none" xmlns="http://www.w3.org/2000/svg">
<path d="M59.9529 39.3334V40.209L60.797 39.976L64.1775 39.0426L64.6667 38.9076V38.4V38.2445V38.0889C64.6667 36.173 64.2337 34.4277 63.3558 32.8691C62.5286 31.3094 61.3399 30.0798 59.801 29.1896C58.8463 28.6373 57.793 28.2592 56.647 28.0503C56.6634 28.0129 56.6797 27.9754 56.6959 27.9378C57.8163 25.5038 58.3668 22.7119 58.3668 19.5778C58.3668 16.3912 57.816 13.5478 56.6959 11.0625C55.628 8.63108 54.0957 6.69188 52.094 5.26787L52.091 5.26574C50.1222 3.88165 47.8079 3.2 45.1772 3.2C41.251 3.2 38.016 4.65361 35.5286 7.55498L35.5285 7.55489L35.52 7.5652C35.0821 8.09718 34.6845 8.66466 34.3269 9.26717C33.9286 8.32013 33.4147 7.46549 32.7829 6.70727C31.3202 4.94217 29.3882 4.05556 27.0459 4.05556C24.9 4.05556 23.161 4.73085 21.9318 6.15295L21.9317 6.15286L21.9231 6.16319C21.5308 6.6361 21.1769 7.13214 20.8618 7.65109L20.8052 7.36263L20.7103 7.59734C20.1932 6.11816 19.4455 4.86815 18.4545 3.86484L18.4545 3.86477L18.4467 3.85712C16.739 2.18401 14.7037 1.33333 12.3718 1.33333C9.11637 1.33333 6.46804 3.05882 4.43318 6.30978C2.33869 9.57397 1.33333 14.2055 1.33333 20.1222C1.33333 23.7086 1.82817 26.9231 2.8313 29.7559C3.83196 32.5817 5.24215 34.8363 7.08341 36.4825C8.94635 38.2003 11.1549 39.0667 13.6778 39.0667C16.5572 39.0667 18.8817 37.8736 20.5932 35.5261C22.2927 33.195 23.1029 30.0315 23.1029 26.1111V15.6111C23.1029 13.5768 23.5188 11.9463 24.3053 10.6792C25.0412 9.54281 26.1246 8.96667 27.6605 8.96667C29.0116 8.96667 30.0951 9.54418 30.9545 10.7805L30.9544 10.7805L30.9571 10.7843C31.6372 11.7483 32.1219 12.9594 32.3923 14.4391C32.07 16.014 31.9108 17.7278 31.9108 19.5778C31.9108 22.7111 32.4355 25.5017 33.5036 27.9347L33.5036 27.9347L33.5063 27.9407C34.625 30.4216 36.1841 32.3645 38.1936 33.7392L38.1936 33.7392L38.2005 33.7438C40.262 35.1168 42.5943 35.8 45.1772 35.8C47.8063 35.8 50.1195 35.1192 52.0875 33.7368C52.9163 33.1694 53.666 32.5039 54.3358 31.7417C55.971 31.9293 57.2202 32.5254 58.1387 33.4925L58.139 33.4928C59.3195 34.7338 59.9529 36.5193 59.9529 38.9445V39.1778V39.3334ZM7.96131 9.78936L7.96132 9.78937L7.9635 9.78538C9.26469 7.39476 10.9143 6.32222 12.9095 6.32222C14.5782 6.32222 15.8891 7.01236 16.8965 8.44935C17.9275 9.92009 18.4659 11.7999 18.4659 14.1333L18.4659 25.1778C18.4659 28.3419 17.9322 30.5638 16.9709 31.9542L16.9708 31.9541L16.9651 31.9626C16.0017 33.4024 14.767 34.0778 13.2169 34.0778C11.9333 34.0778 10.7665 33.5707 9.6961 32.4871L9.68592 32.4768L9.6753 32.4669C8.55349 31.4259 7.62974 29.8775 6.93558 27.7693C6.24668 25.677 5.89343 23.1328 5.89343 20.1222C5.89343 15.6699 6.6031 12.2447 7.96131 9.78936ZM51.4114 11.5865L51.4114 11.5866L51.4174 11.5941C53.0443 13.6288 53.8835 16.2715 53.8835 19.5778C53.8835 22.8848 53.0441 25.4977 51.4223 27.4776L51.4168 27.4843L51.4114 27.4913C49.8507 29.5022 47.7935 30.5 45.1772 30.5C42.5604 30.5 40.4736 29.5013 38.8602 27.4837L38.8602 27.4836L38.8553 27.4776C37.2335 25.4977 36.3941 22.8848 36.3941 19.5778C36.3941 16.2715 37.2333 13.6288 38.8602 11.5941C40.4736 9.57645 42.5604 8.57778 45.1772 8.57778C47.7935 8.57778 49.8507 9.57559 51.4114 11.5865Z" fill="#849994" stroke="#849994" stroke-width="1.33333"/>
<path d="M7.99992 15.3333C7.99992 14.1534 8.20848 13.2979 8.62561 12.767C9.04275 12.2557 9.7181 12 10.6517 12C11.6051 12 12.2904 12.2557 12.7076 12.767C13.1247 13.2979 13.3333 14.1534 13.3333 15.3333C13.3333 16.5133 13.1247 17.3589 12.7076 17.8702C12.2904 18.4012 11.6051 18.6667 10.6517 18.6667C9.7181 18.6667 9.04275 18.4012 8.62561 17.8702C8.20848 17.3589 7.99992 16.5133 7.99992 15.3333Z" fill="#363636"/>
<path d="M39.3332 15.3333C39.3332 14.1534 39.5417 13.2979 39.9589 12.767C40.376 12.2557 41.0514 12 41.9849 12C42.9384 12 43.6237 12.2557 44.0408 12.767C44.4579 13.2979 44.6665 14.1534 44.6665 15.3333C44.6665 16.5133 44.4579 17.3589 44.0408 17.8702C43.6237 18.4012 42.9384 18.6667 41.9849 18.6667C41.0514 18.6667 40.376 18.4012 39.9589 17.8702C39.5417 17.3589 39.3332 16.5133 39.3332 15.3333Z" fill="#363636"/>
</svg>
