<svg width="75" height="75" viewBox="0 0 75 75" fill="none" xmlns="http://www.w3.org/2000/svg">
<circle cx="37.5" cy="37.5" r="37.5" fill="#E14E4E"/>
<path d="M55.3989 42.0403C54.3637 41.0151 52.9658 40.4402 51.509 40.4402C50.0519 40.4402 48.654 41.0151 47.6187 42.0403L47.1188 42.5285L46.631 42.0403C45.2489 40.6515 43.231 40.1051 41.3372 40.6073C39.4431 41.1095 37.9612 42.584 37.4494 44.4751C36.9371 46.3664 37.4731 48.3871 38.8549 49.7762L39.3427 50.2641L47.1229 58L54.8987 50.2641L55.3989 49.7762C56.4281 48.7524 57.0067 47.3602 57.0067 45.9084C57.0067 44.4564 56.4281 43.0641 55.3989 42.0403H55.3989ZM53.987 48.3603L47.1229 55.2003L40.2628 48.3603C39.6099 47.7114 39.2427 46.8288 39.2427 45.9084C39.2427 44.9877 39.61 44.1051 40.2628 43.4563C40.9231 42.8047 41.8134 42.4398 42.7408 42.4398C43.6686 42.4398 44.5589 42.8048 45.2188 43.4563L47.1188 45.3483L49.023 43.4563C49.6832 42.8047 50.5732 42.4398 51.5009 42.4398C52.4283 42.4398 53.3186 42.8048 53.9789 43.4563C54.6318 44.1052 54.9994 44.9877 54.9994 45.9084C54.9994 46.8288 54.6318 47.7114 53.9789 48.3603H53.987Z" fill="#F4F3EF" stroke="#F4F3EF" stroke-width="0.3"/>
<path d="M40.5148 20.0407C39.1635 18.7319 37.3561 18 35.4748 18C33.5939 18 31.7862 18.7319 30.4352 20.0407L29.799 20.6648L29.1629 20.0407C27.8125 18.7322 26.0055 18.0007 24.1252 18.0007C22.2446 18.0007 20.4379 18.7323 19.0873 20.0407C17.7531 21.3365 17 23.1171 17 24.977C17 26.8365 17.753 28.6171 19.0873 29.9128L19.7234 30.5369L29.799 40.4008L39.8789 30.5369L40.515 29.9128H40.5147C41.8479 28.6168 42.6002 26.8362 42.6002 24.977C42.6002 23.1174 41.8479 21.3372 40.5147 20.0407H40.5148ZM39.115 28.4845L29.7988 37.6009L20.487 28.4854C19.5364 27.5666 18.9997 26.3014 18.9997 24.9795C18.9997 23.6573 19.5364 22.392 20.487 21.4733C21.4626 20.5295 22.7674 20.0015 24.1251 20.0015C25.4827 20.0015 26.7872 20.5295 27.7628 21.4733L29.7988 23.4732L31.8349 21.4733C32.8112 20.5291 34.1163 20.0011 35.4747 20.0011C36.833 20.0011 38.1384 20.5292 39.1148 21.4733C40.0633 22.3934 40.5984 23.658 40.5984 24.9795C40.5984 26.3007 40.0634 27.5657 39.1148 28.4854L39.115 28.4845Z" fill="#F4F3EF" stroke="#F4F3EF" stroke-width="0.3"/>
</svg>
