<svg width="75" height="75" viewBox="0 0 75 75" fill="none" xmlns="http://www.w3.org/2000/svg">
<circle cx="37.5" cy="37.5" r="37.5" fill="#C0BDA1"/>
<path d="M54.3371 20.4V18.3333C54.3371 17.9798 54.1966 17.6405 53.9466 17.3905C53.6966 17.1405 53.3573 17 53.0037 17H43.6703C43.3167 17 42.9774 17.1405 42.7274 17.3905C42.4774 17.6405 42.337 17.9798 42.337 18.3333V20.4C41.247 20.6215 40.3393 21.3715 39.917 22.4004C39.4943 23.4289 39.6128 24.6007 40.2325 25.5242C40.8521 26.4477 41.8914 27.0013 43.0036 27.0001C43.2274 27.0001 43.4509 26.9778 43.6703 26.9334V34.3335H30.3368V26.9334C30.5562 26.9778 30.7797 27.0001 31.0035 27.0001C32.1157 27.0013 33.155 26.4477 33.7746 25.5242C34.3943 24.6007 34.5127 23.4289 34.0901 22.4004C33.6678 21.3715 32.76 20.6214 31.6701 20.4V18.3333C31.6701 17.9798 31.5296 17.6405 31.2796 17.3905C31.0296 17.1405 30.6903 17 30.3368 17H21.0033C20.6498 17 20.3105 17.1405 20.0605 17.3905C19.8105 17.6405 19.67 17.9798 19.67 18.3333V20.4C18.5801 20.6215 17.6723 21.3715 17.25 22.4004C16.8274 23.4289 16.9458 24.6007 17.5655 25.5242C18.1851 26.4477 19.2244 27.0013 20.3366 27.0001C20.5604 27.0001 20.784 26.9778 21.0033 26.9334V53H20.3366C19.8063 53 19.2973 53.2107 18.9224 53.5857C18.5474 53.9607 18.3367 54.4697 18.3367 55V56.3333C18.3367 56.5101 18.4069 56.6798 18.5319 56.8048C18.6569 56.9298 18.8265 57 19.0033 57H32.3368C32.5136 57 32.6832 56.9298 32.8082 56.8048C32.9332 56.6798 33.0035 56.5101 33.0035 56.3333V55C33.0035 54.4696 32.7928 53.9607 32.4178 53.5857C32.0427 53.2108 31.5338 53 31.0035 53H30.3368V43.6666H43.6703V53H43.0036C42.4733 53 41.9643 53.2107 41.5894 53.5857C41.2144 53.9607 41.0036 54.4697 41.0036 55V56.3333C41.0036 56.5101 41.0739 56.6798 41.1989 56.8048C41.3239 56.9298 41.4935 57 41.6703 57H55.0038C55.1806 57 55.3502 56.9298 55.4752 56.8048C55.6002 56.6798 55.6705 56.5101 55.6705 56.3333V55C55.6705 54.4696 55.4597 53.9607 55.0847 53.5857C54.7097 53.2108 54.2008 53 53.6705 53H53.0038V26.9334C53.2231 26.9778 53.4467 27.0001 53.6705 27.0001C54.7827 27.0013 55.822 26.4477 56.4416 25.5242C57.0613 24.6007 57.1797 23.4289 56.7571 22.4004C56.3348 21.3715 55.427 20.6214 54.3371 20.4H54.3371ZM53.0037 20.3334H51.6704V18.3333H53.0037V20.3334ZM46.337 18.3333H47.6703V20.3334H46.337V18.3333ZM49.0037 18.3333H50.337V20.3334H49.0037V18.3333ZM43.6703 18.3333H45.0037V20.3334H43.6703V18.3333ZM30.3368 20.3334H29.0035V18.3333H30.3368V20.3334ZM23.6701 18.3333H25.0034V20.3334H23.6701V18.3333ZM26.3368 18.3333H27.6701V20.3334H26.3368V18.3333ZM21.0034 18.3333H22.3367V20.3334H21.0034V18.3333ZM18.3367 23.6667C18.3367 23.1364 18.5474 22.6274 18.9224 22.2525C19.2974 21.8775 19.8064 21.6668 20.3367 21.6668H31.0035C31.4951 21.665 31.9704 21.8441 32.3383 22.1706C32.7062 22.4968 32.941 22.9471 32.9979 23.4356C33.0544 23.9243 32.9294 24.4162 32.6464 24.8183C32.3633 25.2204 31.9419 25.504 31.4627 25.615C30.9839 25.726 30.4806 25.657 30.0496 25.4204C29.6184 25.184 29.2895 24.7971 29.1255 24.3334H31.0035V23.0001H29.0034C28.4457 22.9968 27.8996 23.1593 27.4341 23.4667L26.5007 24.0894C26.2531 24.2489 25.965 24.3334 25.6706 24.3334C25.3763 24.3334 25.0882 24.2489 24.8405 24.0894L23.9072 23.4667C23.4417 23.159 22.895 22.9965 22.3366 23.0001H20.3366V24.3334H22.2113C22.0765 24.723 21.8232 25.0611 21.4872 25.3001C21.1512 25.5391 20.7491 25.6674 20.3365 25.6668C19.8062 25.6668 19.2972 25.4561 18.9223 25.0811C18.5473 24.7061 18.3366 24.1971 18.3366 23.6668L18.3367 23.6667ZM23.4642 24.7748L24.1008 25.1995C24.5668 25.5054 25.1124 25.6688 25.6702 25.6688C26.228 25.6688 26.7734 25.5055 27.2395 25.1995L27.8762 24.7748C28.0904 25.3906 28.483 25.9289 29.0036 26.3215V29.0001H27.6702V27.0001H26.3369V29.0001H25.0035V27.0001H23.6702V29.0001H22.3368V26.3215C22.8574 25.929 23.2499 25.3906 23.4642 24.7748H23.4642ZM31.67 55.0006V55.6673H19.6698V55.0006C19.6698 54.6325 19.9683 54.334 20.3365 54.334H31.0033C31.1801 54.334 31.3497 54.4042 31.4747 54.5292C31.5997 54.6542 31.67 54.8238 31.67 55.0006ZM54.3369 55.0006V55.6673H42.3367V55.0006C42.3367 54.6325 42.6352 54.334 43.0034 54.334H53.6702C53.847 54.334 54.0166 54.4042 54.1416 54.5292C54.2666 54.6542 54.3369 54.8238 54.3369 55.0006ZM45.0034 53.0006V43.0005C45.0034 42.8237 44.9332 42.6541 44.8082 42.5291C44.6832 42.4041 44.5135 42.3338 44.3368 42.3338H29.6699C29.3018 42.3338 29.0033 42.6323 29.0033 43.0005V53.0006H22.3365V30.3337H29.0033V35.0004C29.0033 35.1772 29.0735 35.3469 29.1985 35.4719C29.3235 35.5968 29.4931 35.6671 29.6699 35.6671H44.3368C44.5135 35.6671 44.6832 35.5969 44.8082 35.4719C44.9332 35.3468 45.0034 35.1772 45.0034 35.0004V30.3337H51.6702V53.0006H45.0034ZM51.6702 29.0004H50.3368V27.0003H49.0035V29.0004H47.6701V27.0003H46.3368V29.0004H45.0034V26.3218C45.524 25.9292 45.9165 25.3908 46.1308 24.775L46.7674 25.1997C47.2335 25.5057 47.779 25.6691 48.3368 25.6691C48.8946 25.6691 49.4401 25.5057 49.9062 25.1997L50.5428 24.775C50.7571 25.3908 51.1497 25.9292 51.6702 26.3218L51.6702 29.0004ZM53.6702 25.667C53.2574 25.6676 52.8547 25.5396 52.5181 25.3006C52.1815 25.0616 51.9276 24.7235 51.7922 24.3337H53.6702V23.0003H51.6701C51.1124 22.997 50.5663 23.1595 50.1007 23.467L49.1674 24.0896C48.9198 24.2492 48.6317 24.3337 48.3373 24.3337C48.043 24.3337 47.7549 24.2491 47.5072 24.0896L46.5739 23.467C46.1084 23.1592 45.5617 22.9967 45.0033 23.0003H43.0033V24.3337H44.878C44.7432 24.7233 44.4899 25.0614 44.1539 25.3004C43.8179 25.5394 43.4158 25.6676 43.0032 25.6671C42.2886 25.6671 41.6285 25.2858 41.2711 24.667C40.914 24.0483 40.914 23.2858 41.2711 22.667C41.6285 22.0483 42.2886 21.667 43.0032 21.667H53.67C54.3846 21.667 55.0447 22.0483 55.4021 22.667C55.7593 23.2858 55.7593 24.0483 55.4021 24.667C55.0447 25.2858 54.3846 25.6671 53.67 25.6671L53.6702 25.667Z" fill="#F4F3EF" stroke="#F4F3EF" stroke-width="0.4"/>
<path d="M23.6702 31.6669H25.0035V41.0003H23.6702V31.6669Z" fill="#F4F3EF" stroke="#F4F3EF" stroke-width="0.4"/>
<path d="M26.3369 34.3335H27.6703V49.0003H26.3369V34.3335Z" fill="#F4F3EF" stroke="#F4F3EF" stroke-width="0.4"/>
<path d="M26.3369 50.3337H27.6703V51.6671H26.3369V50.3337Z" fill="#F4F3EF" stroke="#F4F3EF" stroke-width="0.4"/>
<path d="M46.3369 50.3337H47.6703V51.6671H46.3369V50.3337Z" fill="#F4F3EF" stroke="#F4F3EF" stroke-width="0.4"/>
<path d="M46.3369 34.3335H47.6703V49.0003H46.3369V34.3335Z" fill="#F4F3EF" stroke="#F4F3EF" stroke-width="0.4"/>
<path d="M46.3369 31.6669H47.6703V33.0002H46.3369V31.6669Z" fill="#F4F3EF" stroke="#F4F3EF" stroke-width="0.4"/>
<path d="M49.0037 42.3336H50.337V51.667H49.0037V42.3336Z" fill="#F4F3EF" stroke="#F4F3EF" stroke-width="0.4"/>
<path d="M23.6702 42.3336H25.0035V51.667H23.6702V42.3336Z" fill="#F4F3EF" stroke="#F4F3EF" stroke-width="0.4"/>
<path d="M49.0037 31.6669H50.337V41.0003H49.0037V31.6669Z" fill="#F4F3EF" stroke="#F4F3EF" stroke-width="0.4"/>
<path d="M26.3369 31.6669H27.6703V33.0002H26.3369V31.6669Z" fill="#F4F3EF" stroke="#F4F3EF" stroke-width="0.4"/>
<path d="M29.6702 38.3335H31.0035V39.6668H29.6702V38.3335Z" fill="#F4F3EF" stroke="#F4F3EF" stroke-width="0.4"/>
<path d="M32.3369 38.3335H33.6703V39.6668H32.3369V38.3335Z" fill="#F4F3EF" stroke="#F4F3EF" stroke-width="0.4"/>
<path d="M35.0037 38.3335H36.337V39.6668H35.0037V38.3335Z" fill="#F4F3EF" stroke="#F4F3EF" stroke-width="0.4"/>
<path d="M37.6702 38.3335H39.0035V39.6668H37.6702V38.3335Z" fill="#F4F3EF" stroke="#F4F3EF" stroke-width="0.4"/>
<path d="M40.3369 38.3335H41.6703V39.6668H40.3369V38.3335Z" fill="#F4F3EF" stroke="#F4F3EF" stroke-width="0.4"/>
<path d="M43.0037 38.3335H44.337V39.6668H43.0037V38.3335Z" fill="#F4F3EF" stroke="#F4F3EF" stroke-width="0.4"/>
</svg>
